<svg xmlns="http://www.w3.org/2000/svg" xmlns:xlink="http://www.w3.org/1999/xlink" width="500" zoomAndPan="magnify" viewBox="0 0 375 374.999991" height="500" preserveAspectRatio="xMidYMid meet" version="1.0"><path fill="#a61b1c" d="M 0.683594 230.886719 C 1.367188 232.855469 3.472656 233.921875 5.390625 233.265625 C 7.304688 232.582031 8.402344 230.554688 7.773438 228.53125 C 7.167969 226.558594 5.007812 225.355469 3.035156 226.066406 C 1.039062 226.75 0 228.914062 0.683594 230.886719 Z M 0.683594 230.886719 " fill-opacity="1" fill-rule="nonzero"/><path fill="#a61b1c" d="M 22.195312 224.535156 C 22.691406 226.558594 24.6875 227.820312 26.660156 227.382812 C 28.628906 226.945312 29.917969 224.917969 29.476562 222.890625 C 29.039062 220.839844 27.042969 219.554688 24.988281 220.019531 C 22.964844 220.484375 21.703125 222.507812 22.195312 224.535156 Z M 22.195312 224.535156 " fill-opacity="1" fill-rule="nonzero"/><path fill="#a61b1c" d="M 44.203125 220.183594 C 44.558594 222.234375 46.476562 223.660156 48.472656 223.332031 C 50.5 223 51.894531 221.085938 51.59375 219.03125 C 51.292969 216.980469 49.378906 215.527344 47.296875 215.859375 C 45.246094 216.160156 43.847656 218.101562 44.203125 220.183594 Z M 44.203125 220.183594 " fill-opacity="1" fill-rule="nonzero"/><path fill="#a61b1c" d="M 66.402344 216.925781 C 66.675781 219.003906 68.566406 220.457031 70.617188 220.183594 C 72.671875 219.910156 74.09375 218.019531 73.820312 215.941406 C 73.546875 213.859375 71.660156 212.410156 69.605469 212.683594 C 67.554688 212.929688 66.128906 214.84375 66.402344 216.925781 Z M 66.402344 216.925781 " fill-opacity="1" fill-rule="nonzero"/><path fill="#a61b1c" d="M 88.65625 213.914062 C 88.957031 215.996094 90.847656 217.417969 92.898438 217.117188 C 94.953125 216.816406 96.375 214.898438 96.046875 212.820312 C 95.71875 210.765625 93.832031 209.316406 91.804688 209.617188 C 89.75 209.917969 88.355469 211.832031 88.65625 213.914062 Z M 88.65625 213.914062 " fill-opacity="1" fill-rule="nonzero"/><path fill="#a61b1c" d="M 110.800781 210.273438 C 111.183594 212.328125 113.183594 213.667969 115.234375 213.257812 C 117.289062 212.875 118.574219 210.792969 118.136719 208.769531 C 117.671875 206.714844 115.726562 205.457031 113.730469 205.839844 C 111.703125 206.25 110.390625 208.222656 110.800781 210.273438 Z M 110.800781 210.273438 " fill-opacity="1" fill-rule="nonzero"/><path fill="#a61b1c" d="M 132.644531 205.183594 C 133.191406 207.179688 135.300781 208.386719 137.324219 207.78125 C 139.324219 207.152344 140.445312 205.046875 139.816406 203.046875 C 139.1875 201.050781 137.105469 199.925781 135.164062 200.527344 C 133.21875 201.105469 132.070312 203.15625 132.644531 205.183594 Z M 132.644531 205.183594 " fill-opacity="1" fill-rule="nonzero"/><path fill="#a61b1c" d="M 153.941406 198.148438 C 154.679688 200.117188 156.867188 201.078125 158.8125 200.28125 C 160.753906 199.488281 161.6875 197.300781 160.863281 195.382812 C 160.042969 193.46875 157.882812 192.507812 155.992188 193.277344 C 154.132812 194.042969 153.199219 196.203125 153.941406 198.148438 Z M 153.941406 198.148438 " fill-opacity="1" fill-rule="nonzero"/><path fill="#a61b1c" d="M 174.496094 189.140625 C 175.425781 191.003906 177.699219 191.769531 179.558594 190.8125 C 181.449219 189.882812 182.105469 187.527344 181.121094 185.695312 C 180.109375 183.832031 177.890625 183.203125 176.082031 184.078125 C 174.277344 185.007812 173.566406 187.28125 174.496094 189.140625 Z M 174.496094 189.140625 " fill-opacity="1" fill-rule="nonzero"/><path fill="#a61b1c" d="M 194.039062 178.167969 C 195.136719 179.917969 197.515625 180.492188 199.269531 179.316406 C 201.019531 178.136719 201.484375 175.8125 200.308594 174.085938 C 199.132812 172.363281 196.804688 171.871094 195.136719 172.992188 C 193.464844 174.140625 192.945312 176.386719 194.039062 178.167969 Z M 194.039062 178.167969 " fill-opacity="1" fill-rule="nonzero"/><path fill="#a61b1c" d="M 212.378906 165.21875 C 213.667969 166.859375 216.046875 167.109375 217.691406 165.765625 C 219.359375 164.453125 219.46875 161.988281 218.128906 160.429688 C 216.757812 158.839844 214.460938 158.703125 212.871094 159.9375 C 211.3125 161.222656 211.09375 163.578125 212.378906 165.21875 Z M 212.378906 165.21875 " fill-opacity="1" fill-rule="nonzero"/><path fill="#a61b1c" d="M 229.078125 150.273438 C 230.554688 151.75 232.9375 151.75 234.414062 150.246094 C 235.890625 148.742188 235.863281 146.386719 234.332031 144.964844 C 232.800781 143.539062 230.417969 143.566406 228.996094 144.992188 C 227.570312 146.414062 227.597656 148.769531 229.078125 150.273438 Z M 229.078125 150.273438 " fill-opacity="1" fill-rule="nonzero"/><path fill="#a61b1c" d="M 244.105469 133.632812 C 245.71875 134.945312 248.101562 134.671875 249.386719 133.027344 C 250.699219 131.359375 250.398438 129.003906 248.730469 127.746094 C 247.058594 126.488281 244.679688 126.761719 243.445312 128.347656 C 242.1875 129.9375 242.488281 132.316406 244.105469 133.632812 Z M 244.105469 133.632812 " fill-opacity="1" fill-rule="nonzero"/><path fill="#a61b1c" d="M 261.375 109.214844 C 259.597656 108.121094 257.269531 108.613281 256.175781 110.335938 C 255.082031 112.0625 255.628906 114.390625 257.351562 115.539062 C 259.105469 116.6875 261.429688 116.195312 262.554688 114.417969 C 263.675781 112.636719 263.15625 110.308594 261.375 109.214844 Z M 261.375 109.214844 " fill-opacity="1" fill-rule="nonzero"/><path fill="#a61b1c" d="M 273.96875 94.734375 C 274.925781 92.875 274.214844 90.601562 272.351562 89.644531 C 270.492188 88.6875 268.21875 89.398438 267.289062 91.203125 C 266.359375 93.011719 267.070312 95.28125 268.902344 96.296875 C 270.738281 97.308594 273.007812 96.597656 273.96875 94.734375 Z M 273.96875 94.734375 " fill-opacity="1" fill-rule="nonzero"/><path fill="#a61b1c" d="M 283.875 74.34375 C 284.722656 72.425781 283.847656 70.210938 281.933594 69.390625 C 280.015625 68.566406 277.800781 69.390625 276.976562 71.277344 C 276.15625 73.140625 277.03125 75.382812 278.921875 76.230469 C 280.835938 77.082031 283.054688 76.230469 283.875 74.34375 Z M 283.875 74.34375 " fill-opacity="1" fill-rule="nonzero"/><path fill="#a61b1c" d="M 292.582031 53.429688 C 293.320312 51.488281 292.332031 49.296875 290.390625 48.558594 C 288.445312 47.820312 286.257812 48.777344 285.519531 50.695312 C 284.804688 52.609375 285.765625 54.773438 287.679688 55.539062 C 289.652344 56.332031 291.839844 55.375 292.582031 53.429688 Z M 292.582031 53.429688 " fill-opacity="1" fill-rule="nonzero"/><path fill="#a61b1c" d="M 300.355469 32.246094 C 301.039062 30.273438 299.972656 28.136719 298 27.453125 C 296.027344 26.769531 293.894531 27.808594 293.210938 29.753906 C 292.554688 31.695312 293.566406 33.832031 295.535156 34.515625 C 297.507812 35.226562 299.695312 34.214844 300.355469 32.246094 Z M 300.355469 32.246094 " fill-opacity="1" fill-rule="nonzero"/><path fill="#a61b1c" d="M 305.144531 6.1875 C 303.144531 5.527344 301.039062 6.597656 300.382812 8.566406 C 299.75 10.539062 300.820312 12.644531 302.789062 13.304688 C 304.761719 13.960938 306.921875 12.890625 307.554688 10.949219 C 308.210938 8.949219 307.140625 6.84375 305.144531 6.1875 Z M 305.144531 6.1875 " fill-opacity="1" fill-rule="nonzero"/><path fill="#a61b1c" d="M 0.820312 259.132812 C 1.695312 261.023438 3.914062 261.898438 5.773438 261.050781 C 7.636719 260.199219 8.484375 257.957031 7.664062 256.066406 C 6.839844 254.125 4.625 253.277344 2.707031 254.125 C 0.792969 255 -0.0546875 257.246094 0.820312 259.132812 Z M 0.820312 259.132812 " fill-opacity="1" fill-rule="nonzero"/><path fill="#a61b1c" d="M 21.566406 250.511719 C 22.304688 252.453125 24.441406 253.46875 26.359375 252.753906 C 28.246094 252.015625 29.285156 249.9375 28.601562 247.964844 C 27.917969 246.023438 25.753906 244.898438 23.8125 245.667969 C 21.8125 246.378906 20.828125 248.566406 21.566406 250.511719 Z M 21.566406 250.511719 " fill-opacity="1" fill-rule="nonzero"/><path fill="#a61b1c" d="M 42.78125 243.394531 C 43.355469 245.363281 45.410156 246.542969 47.378906 245.996094 C 49.324219 245.445312 50.472656 243.367188 49.953125 241.394531 C 49.40625 239.398438 47.378906 238.25 45.382812 238.796875 C 43.328125 239.316406 42.179688 241.394531 42.78125 243.394531 Z M 42.78125 243.394531 " fill-opacity="1" fill-rule="nonzero"/><path fill="#a61b1c" d="M 64.242188 237.753906 C 64.707031 239.753906 66.703125 240.984375 68.675781 240.519531 C 70.644531 240.054688 71.878906 238.082031 71.414062 236.085938 C 70.945312 234.085938 68.976562 232.828125 66.976562 233.292969 C 65.007812 233.785156 63.777344 235.757812 64.242188 237.753906 Z M 64.242188 237.753906 " fill-opacity="1" fill-rule="nonzero"/><path fill="#a61b1c" d="M 85.671875 232.882812 C 86.109375 234.855469 88.054688 236.113281 90.027344 235.675781 C 91.996094 235.238281 93.199219 233.265625 92.761719 231.296875 C 92.324219 229.324219 90.382812 228.09375 88.410156 228.53125 C 86.46875 228.914062 85.234375 230.886719 85.671875 232.882812 Z M 85.671875 232.882812 " fill-opacity="1" fill-rule="nonzero"/><path fill="#a61b1c" d="M 106.722656 227.300781 C 106.832031 229.324219 108.554688 230.886719 110.582031 230.75 C 112.609375 230.636719 114.140625 228.886719 114.003906 226.859375 C 113.867188 224.835938 112.140625 223.277344 110.144531 223.414062 C 108.117188 223.523438 106.585938 225.273438 106.722656 227.300781 Z M 106.722656 227.300781 " fill-opacity="1" fill-rule="nonzero"/><path fill="#a61b1c" d="M 127.527344 221.6875 C 127.746094 223.714844 129.550781 225.164062 131.578125 224.945312 C 133.601562 224.726562 135.027344 222.835938 134.75 220.839844 C 134.476562 218.8125 132.671875 217.417969 130.699219 217.636719 C 128.730469 217.855469 127.304688 219.664062 127.527344 221.6875 Z M 127.527344 221.6875 " fill-opacity="1" fill-rule="nonzero"/><path fill="#a61b1c" d="M 147.945312 214.707031 C 148.300781 216.707031 150.246094 218.019531 152.242188 217.636719 C 154.242188 217.226562 155.5 215.253906 155.0625 213.285156 C 154.625 211.3125 152.707031 210.027344 150.792969 210.4375 C 148.847656 210.820312 147.589844 212.710938 147.945312 214.707031 Z M 147.945312 214.707031 " fill-opacity="1" fill-rule="nonzero"/><path fill="#a61b1c" d="M 168.089844 206.632812 C 168.96875 208.46875 171.183594 209.234375 172.992188 208.304688 C 174.824219 207.371094 175.535156 205.183594 174.605469 203.375 C 173.675781 201.570312 171.457031 200.832031 169.707031 201.734375 C 167.925781 202.636719 167.214844 204.828125 168.089844 206.632812 Z M 168.089844 206.632812 " fill-opacity="1" fill-rule="nonzero"/><path fill="#a61b1c" d="M 187.417969 196.257812 C 188.457031 198.039062 190.726562 198.613281 192.507812 197.546875 C 194.285156 196.503906 194.804688 194.152344 193.710938 192.425781 C 192.617188 190.675781 190.371094 190.183594 188.648438 191.195312 C 186.949219 192.207031 186.402344 194.480469 187.417969 196.257812 Z M 187.417969 196.257812 " fill-opacity="1" fill-rule="nonzero"/><path fill="#a61b1c" d="M 206.054688 184.214844 C 207.234375 185.886719 209.613281 186.351562 211.285156 185.089844 C 212.953125 183.859375 213.335938 181.503906 212.078125 179.835938 C 210.847656 178.167969 208.492188 177.808594 206.878906 178.988281 C 205.261719 180.246094 204.851562 182.519531 206.054688 184.214844 Z M 206.054688 184.214844 " fill-opacity="1" fill-rule="nonzero"/><path fill="#a61b1c" d="M 223.792969 170.609375 C 225.136719 172.199219 227.515625 172.390625 229.105469 171.050781 C 230.71875 169.707031 230.828125 167.246094 229.433594 165.710938 C 228.035156 164.152344 225.738281 164.042969 224.175781 165.328125 C 222.617188 166.640625 222.453125 168.996094 223.792969 170.609375 Z M 223.792969 170.609375 " fill-opacity="1" fill-rule="nonzero"/><path fill="#a61b1c" d="M 240.328125 155.390625 C 241.804688 156.871094 244.1875 156.871094 245.664062 155.363281 C 247.140625 153.859375 247.113281 151.503906 245.609375 150.054688 C 244.105469 148.632812 241.695312 148.605469 240.246094 150.054688 C 238.820312 151.53125 238.847656 153.914062 240.328125 155.390625 Z M 240.328125 155.390625 " fill-opacity="1" fill-rule="nonzero"/><path fill="#a61b1c" d="M 255.628906 138.941406 C 257.214844 140.308594 259.570312 140.089844 260.910156 138.503906 C 262.25 136.890625 262.03125 134.535156 260.417969 133.222656 C 258.804688 131.90625 256.421875 132.097656 255.136719 133.660156 C 253.820312 135.21875 254.039062 137.574219 255.628906 138.941406 Z M 255.628906 138.941406 " fill-opacity="1" fill-rule="nonzero"/><path fill="#a61b1c" d="M 269.585938 121.476562 C 271.230469 122.710938 273.554688 122.355469 274.789062 120.65625 C 275.992188 118.988281 275.609375 116.660156 273.941406 115.457031 C 272.269531 114.277344 269.945312 114.636719 268.738281 116.25 C 267.535156 117.917969 267.917969 120.246094 269.585938 121.476562 Z M 269.585938 121.476562 " fill-opacity="1" fill-rule="nonzero"/><path fill="#a61b1c" d="M 281.054688 98.265625 C 279.988281 99.964844 280.507812 102.234375 282.207031 103.332031 C 283.929688 104.453125 286.175781 103.960938 287.269531 102.207031 C 288.363281 100.484375 287.84375 98.210938 286.121094 97.144531 C 284.394531 96.078125 282.125 96.570312 281.054688 98.265625 Z M 281.054688 98.265625 " fill-opacity="1" fill-rule="nonzero"/><path fill="#a61b1c" d="M 296.578125 78.121094 C 294.660156 77.492188 292.582031 78.503906 291.949219 80.363281 C 291.320312 82.253906 292.359375 84.332031 294.25 84.992188 C 296.167969 85.675781 298.246094 84.664062 298.875 82.746094 C 299.53125 80.832031 298.492188 78.75 296.578125 78.121094 Z M 296.578125 78.121094 " fill-opacity="1" fill-rule="nonzero"/><path fill="#a61b1c" d="M 306.675781 59.015625 C 304.707031 58.441406 302.679688 59.535156 302.105469 61.476562 C 301.558594 63.394531 302.652344 65.445312 304.597656 66.023438 C 306.539062 66.625 308.621094 65.527344 309.167969 63.585938 C 309.769531 61.613281 308.648438 59.589844 306.675781 59.015625 Z M 306.675781 59.015625 " fill-opacity="1" fill-rule="nonzero"/><path fill="#a61b1c" d="M 311.578125 42.289062 C 311.082031 44.234375 312.234375 46.230469 314.203125 46.777344 C 316.175781 47.300781 318.226562 46.148438 318.722656 44.179688 C 319.242188 42.207031 318.035156 40.210938 316.066406 39.691406 C 314.09375 39.167969 312.097656 40.347656 311.578125 42.289062 Z M 311.578125 42.289062 " fill-opacity="1" fill-rule="nonzero"/><path fill="#a61b1c" d="M 327.753906 24.636719 C 328.21875 22.664062 327.015625 20.695312 325.015625 20.199219 C 323.046875 19.707031 321.046875 20.914062 320.554688 22.882812 C 320.089844 24.855469 321.292969 26.824219 323.265625 27.316406 C 325.261719 27.78125 327.289062 26.578125 327.753906 24.636719 Z M 327.753906 24.636719 " fill-opacity="1" fill-rule="nonzero"/><path fill="#a61b1c" d="M 336.539062 4.925781 C 337.003906 2.984375 335.800781 1.011719 333.832031 0.546875 C 331.859375 0.0820312 329.859375 1.257812 329.394531 3.230469 C 328.929688 5.199219 330.164062 7.171875 332.132812 7.636719 C 334.105469 8.074219 336.074219 6.871094 336.539062 4.925781 Z M 336.539062 4.925781 " fill-opacity="1" fill-rule="nonzero"/><path fill="#a61b1c" d="M 1.503906 288.914062 C 2.460938 290.777344 4.734375 291.515625 6.566406 290.582031 C 8.402344 289.652344 9.140625 287.382812 8.210938 285.519531 C 7.277344 283.660156 5.035156 282.917969 3.144531 283.851562 C 1.285156 284.808594 0.546875 287.082031 1.503906 288.914062 Z M 1.503906 288.914062 " fill-opacity="1" fill-rule="nonzero"/><path fill="#a61b1c" d="M 21.757812 279.058594 C 22.636719 280.949219 24.851562 281.796875 26.742188 280.949219 C 28.601562 280.074219 29.449219 277.855469 28.601562 275.941406 C 27.753906 274.023438 25.535156 273.175781 23.621094 274.050781 C 21.730469 274.925781 20.882812 277.171875 21.757812 279.058594 Z M 21.757812 279.058594 " fill-opacity="1" fill-rule="nonzero"/><path fill="#a61b1c" d="M 42.425781 270.136719 C 43.21875 272.082031 45.382812 273.011719 47.269531 272.246094 C 49.160156 271.421875 50.117188 269.316406 49.378906 267.371094 C 48.640625 265.457031 46.449219 264.417969 44.53125 265.238281 C 42.617188 266.003906 41.660156 268.195312 42.425781 270.136719 Z M 42.425781 270.136719 " fill-opacity="1" fill-rule="nonzero"/><path fill="#a61b1c" d="M 68.046875 264.582031 C 69.960938 263.949219 70.972656 261.789062 70.34375 259.871094 C 69.6875 257.929688 67.636719 256.917969 65.664062 257.546875 C 63.695312 258.175781 62.652344 260.28125 63.335938 262.253906 C 64.023438 264.167969 66.128906 265.210938 68.046875 264.582031 Z M 68.046875 264.582031 " fill-opacity="1" fill-rule="nonzero"/><path fill="#a61b1c" d="M 84.304688 255.355469 C 84.90625 257.300781 86.960938 258.367188 88.875 257.738281 C 90.792969 257.136719 91.859375 255.109375 91.257812 253.167969 C 90.65625 251.25 88.601562 250.15625 86.6875 250.757812 C 84.742188 251.386719 83.703125 253.441406 84.304688 255.355469 Z M 84.304688 255.355469 " fill-opacity="1" fill-rule="nonzero"/><path fill="#a61b1c" d="M 111.703125 246.597656 C 111.074219 244.734375 109.078125 243.695312 107.214844 244.296875 C 105.355469 244.898438 104.3125 246.925781 104.917969 248.8125 C 105.519531 250.703125 107.542969 251.742188 109.40625 251.113281 C 111.320312 250.511719 112.332031 248.484375 111.703125 246.597656 Z M 111.703125 246.597656 " fill-opacity="1" fill-rule="nonzero"/><path fill="#a61b1c" d="M 128.457031 237.179688 C 126.484375 237.125 124.84375 238.714844 124.789062 240.683594 C 124.734375 242.683594 126.265625 244.324219 128.265625 244.378906 C 130.234375 244.433594 131.90625 242.875 131.933594 240.875 C 131.960938 238.90625 130.398438 237.234375 128.457031 237.179688 Z M 128.457031 237.179688 " fill-opacity="1" fill-rule="nonzero"/><path fill="#a61b1c" d="M 151.421875 232.882812 C 151.339844 230.886719 149.695312 229.351562 147.726562 229.40625 C 145.753906 229.460938 144.222656 231.132812 144.25 233.101562 C 144.277344 235.101562 145.945312 236.6875 147.945312 236.632812 C 149.945312 236.578125 151.476562 234.882812 151.421875 232.882812 Z M 151.421875 232.882812 " fill-opacity="1" fill-rule="nonzero"/><path fill="#a61b1c" d="M 170.335938 223.496094 C 170.089844 221.523438 168.363281 220.101562 166.421875 220.320312 C 164.503906 220.511719 163.082031 222.234375 163.246094 224.234375 C 163.4375 226.203125 165.191406 227.683594 167.160156 227.464844 C 169.160156 227.246094 170.554688 225.464844 170.335938 223.496094 Z M 170.335938 223.496094 " fill-opacity="1" fill-rule="nonzero"/><path fill="#a61b1c" d="M 182.242188 215.144531 C 183.253906 216.871094 185.472656 217.390625 187.195312 216.351562 C 188.894531 215.28125 189.414062 213.066406 188.347656 211.394531 C 187.277344 209.699219 185.0625 209.179688 183.417969 210.21875 C 181.75 211.230469 181.230469 213.449219 182.242188 215.144531 Z M 182.242188 215.144531 " fill-opacity="1" fill-rule="nonzero"/><path fill="#a61b1c" d="M 205.453125 204.25 C 207.125 203.101562 207.507812 200.75 206.304688 199.132812 C 205.097656 197.464844 202.855469 197.136719 201.210938 198.257812 C 199.597656 199.40625 199.214844 201.679688 200.335938 203.347656 C 201.511719 205.019531 203.785156 205.429688 205.453125 204.25 Z M 205.453125 204.25 " fill-opacity="1" fill-rule="nonzero"/><path fill="#a61b1c" d="M 223.847656 185.636719 C 222.535156 184.050781 220.207031 183.777344 218.621094 185.0625 C 217.058594 186.351562 216.785156 188.648438 218.046875 190.265625 C 219.304688 191.878906 221.6875 192.207031 223.273438 190.867188 C 224.917969 189.582031 225.164062 187.226562 223.847656 185.636719 Z M 223.847656 185.636719 " fill-opacity="1" fill-rule="nonzero"/><path fill="#a61b1c" d="M 235.207031 175.976562 C 236.578125 177.535156 238.957031 177.671875 240.519531 176.277344 C 242.078125 174.882812 242.160156 172.472656 240.738281 170.941406 C 239.3125 169.40625 236.988281 169.324219 235.453125 170.695312 C 233.949219 172.035156 233.839844 174.417969 235.207031 175.976562 Z M 235.207031 175.976562 " fill-opacity="1" fill-rule="nonzero"/><path fill="#a61b1c" d="M 251.578125 160.511719 C 253.054688 161.988281 255.4375 161.988281 256.914062 160.511719 C 258.390625 159.03125 258.390625 156.652344 256.886719 155.199219 C 255.382812 153.75 252.972656 153.722656 251.523438 155.199219 C 250.097656 156.652344 250.097656 159.03125 251.578125 160.511719 Z M 251.578125 160.511719 " fill-opacity="1" fill-rule="nonzero"/><path fill="#a61b1c" d="M 267.125 144.25 C 268.65625 145.648438 271.039062 145.539062 272.40625 143.976562 C 273.804688 142.417969 273.667969 140.0625 272.105469 138.695312 C 270.546875 137.328125 268.191406 137.4375 266.796875 138.96875 C 265.453125 140.472656 265.589844 142.855469 267.125 144.25 Z M 267.125 144.25 " fill-opacity="1" fill-rule="nonzero"/><path fill="#a61b1c" d="M 281.796875 127.445312 C 283.355469 128.757812 285.683594 128.539062 286.96875 126.953125 C 288.253906 125.363281 288.035156 123.039062 286.449219 121.777344 C 284.859375 120.492188 282.535156 120.710938 281.25 122.273438 C 279.960938 123.804688 280.207031 126.132812 281.796875 127.445312 Z M 281.796875 127.445312 " fill-opacity="1" fill-rule="nonzero"/><path fill="#a61b1c" d="M 294.824219 105.328125 C 293.621094 106.886719 293.949219 109.160156 295.535156 110.390625 C 297.125 111.625 299.394531 111.324219 300.601562 109.707031 C 301.804688 108.09375 301.476562 105.847656 299.890625 104.644531 C 298.273438 103.46875 296 103.769531 294.824219 105.328125 Z M 294.824219 105.328125 " fill-opacity="1" fill-rule="nonzero"/><path fill="#a61b1c" d="M 311.195312 86.851562 C 309.25 86.414062 307.332031 87.589844 306.894531 89.480469 C 306.457031 91.367188 307.664062 93.285156 309.578125 93.777344 C 311.496094 94.269531 313.410156 93.09375 313.875 91.148438 C 314.3125 89.234375 313.136719 87.316406 311.195312 86.851562 Z M 311.195312 86.851562 " fill-opacity="1" fill-rule="nonzero"/><path fill="#a61b1c" d="M 325.808594 73.714844 C 326.222656 71.769531 324.933594 69.855469 322.964844 69.445312 C 320.992188 69.058594 319.078125 70.292969 318.695312 72.234375 C 318.308594 74.179688 319.570312 76.066406 321.511719 76.476562 C 323.511719 76.917969 325.425781 75.683594 325.808594 73.714844 Z M 325.808594 73.714844 " fill-opacity="1" fill-rule="nonzero"/><path fill="#a61b1c" d="M 337.113281 56.113281 C 337.472656 54.140625 336.128906 52.253906 334.160156 51.898438 C 332.1875 51.542969 330.300781 52.855469 329.945312 54.800781 C 329.613281 56.769531 330.902344 58.632812 332.871094 58.988281 C 334.871094 59.398438 336.785156 58.082031 337.113281 56.113281 Z M 337.113281 56.113281 " fill-opacity="1" fill-rule="nonzero"/><path fill="#a61b1c" d="M 347.953125 38.320312 C 348.253906 36.351562 346.914062 34.515625 344.917969 34.1875 C 342.945312 33.859375 341.054688 35.199219 340.753906 37.171875 C 340.453125 39.140625 341.796875 40.976562 343.765625 41.304688 C 345.765625 41.632812 347.652344 40.292969 347.953125 38.320312 Z M 347.953125 38.320312 " fill-opacity="1" fill-rule="nonzero"/><path fill="#a61b1c" d="M 358.519531 20.226562 C 358.792969 18.285156 357.453125 16.476562 355.480469 16.175781 C 353.511719 15.875 351.675781 17.21875 351.375 19.1875 C 351.074219 21.132812 352.472656 22.964844 354.441406 23.265625 C 356.414062 23.539062 358.246094 22.171875 358.519531 20.226562 Z M 358.519531 20.226562 " fill-opacity="1" fill-rule="nonzero"/><path fill="#a61b1c" d="M 368.675781 3.121094 C 369.6875 1.421875 369.085938 -0.765625 367.359375 -1.75 C 365.636719 -2.738281 363.417969 -2.164062 362.433594 -0.4375 C 361.476562 1.285156 362.078125 3.449219 363.777344 4.433594 C 365.527344 5.417969 367.71875 4.84375 368.675781 3.121094 Z M 368.675781 3.121094 " fill-opacity="1" fill-rule="nonzero"/><path fill="#a61b1c" d="M 8.921875 315.4375 C 7.992188 313.578125 5.71875 312.863281 3.886719 313.824219 C 2.050781 314.78125 1.3125 317.027344 2.269531 318.859375 C 3.226562 320.695312 5.5 321.460938 7.332031 320.5 C 9.140625 319.570312 9.878906 317.300781 8.921875 315.4375 Z M 8.921875 315.4375 " fill-opacity="1" fill-rule="nonzero"/><path fill="#a61b1c" d="M 29.09375 305.417969 C 28.191406 303.558594 25.945312 302.765625 24.058594 303.667969 C 22.167969 304.570312 21.402344 306.84375 22.332031 308.703125 C 23.265625 310.566406 25.507812 311.359375 27.371094 310.457031 C 29.257812 309.582031 30.027344 307.308594 29.09375 305.417969 Z M 29.09375 305.417969 " fill-opacity="1" fill-rule="nonzero"/><path fill="#a61b1c" d="M 42.726562 298.988281 C 43.601562 300.875 45.847656 301.695312 47.707031 300.820312 C 49.570312 299.945312 50.417969 297.699219 49.542969 295.8125 C 48.667969 293.894531 46.449219 293.074219 44.53125 293.949219 C 42.671875 294.828125 41.851562 297.070312 42.726562 298.988281 Z M 42.726562 298.988281 " fill-opacity="1" fill-rule="nonzero"/><path fill="#a61b1c" d="M 68.238281 291.707031 C 70.097656 290.832031 71 288.695312 70.207031 286.777344 C 69.414062 284.890625 67.195312 283.933594 65.308594 284.808594 C 63.417969 285.65625 62.515625 287.847656 63.335938 289.761719 C 64.132812 291.652344 66.347656 292.554688 68.238281 291.707031 Z M 68.238281 291.707031 " fill-opacity="1" fill-rule="nonzero"/><path fill="#a61b1c" d="M 88.738281 283.167969 C 90.628906 282.425781 91.53125 280.210938 90.792969 278.347656 C 90.027344 276.433594 87.917969 275.554688 86 276.296875 C 84.085938 277.035156 83.15625 279.167969 83.921875 281.085938 C 84.6875 282.972656 86.851562 283.90625 88.738281 283.167969 Z M 88.738281 283.167969 " fill-opacity="1" fill-rule="nonzero"/><path fill="#a61b1c" d="M 109.050781 274.980469 C 110.910156 274.214844 111.8125 272.136719 111.074219 270.300781 C 110.335938 268.46875 108.226562 267.535156 106.367188 268.277344 C 104.503906 269.015625 103.601562 271.121094 104.339844 272.984375 C 105.082031 274.816406 107.1875 275.722656 109.050781 274.980469 Z M 109.050781 274.980469 " fill-opacity="1" fill-rule="nonzero"/><path fill="#a61b1c" d="M 128.867188 266.605469 C 130.644531 265.8125 131.441406 263.703125 130.644531 261.925781 C 129.851562 260.144531 127.800781 259.351562 126.019531 260.117188 C 124.242188 260.886719 123.417969 262.964844 124.1875 264.773438 C 124.980469 266.578125 127.058594 267.398438 128.867188 266.605469 Z M 128.867188 266.605469 " fill-opacity="1" fill-rule="nonzero"/><path fill="#a61b1c" d="M 145.917969 258.039062 C 147.863281 258.285156 149.640625 256.886719 149.859375 254.917969 C 150.082031 252.945312 148.710938 251.167969 146.769531 250.949219 C 144.824219 250.730469 143.074219 252.125 142.855469 254.070312 C 142.609375 256.039062 143.976562 257.792969 145.917969 258.039062 Z M 145.917969 258.039062 " fill-opacity="1" fill-rule="nonzero"/><path fill="#a61b1c" d="M 164.3125 248.320312 C 166.285156 248.457031 167.953125 246.925781 168.0625 244.953125 C 168.171875 242.984375 166.667969 241.3125 164.75 241.175781 C 162.808594 241.039062 161.140625 242.574219 161 244.515625 C 160.835938 246.488281 162.34375 248.183594 164.3125 248.320312 Z M 164.3125 248.320312 " fill-opacity="1" fill-rule="nonzero"/><path fill="#a61b1c" d="M 182.050781 230.226562 C 180.136719 230.226562 178.574219 231.816406 178.574219 233.757812 C 178.574219 235.730469 180.164062 237.316406 182.105469 237.289062 C 184.050781 237.261719 185.609375 235.648438 185.582031 233.703125 C 185.554688 231.761719 183.96875 230.199219 182.050781 230.226562 Z M 182.050781 230.226562 " fill-opacity="1" fill-rule="nonzero"/><path fill="#a61b1c" d="M 196.394531 223.632812 C 197.542969 225.21875 199.789062 225.546875 201.375 224.34375 C 202.964844 223.167969 203.265625 220.921875 202.058594 219.359375 C 200.855469 217.800781 198.640625 217.472656 197.078125 218.648438 C 195.546875 219.828125 195.21875 222.042969 196.394531 223.632812 Z M 196.394531 223.632812 " fill-opacity="1" fill-rule="nonzero"/><path fill="#a61b1c" d="M 218.921875 205.839844 C 217.636719 204.277344 215.363281 204.085938 213.804688 205.347656 C 212.269531 206.605469 212.050781 208.90625 213.308594 210.464844 C 214.570312 212.027344 216.839844 212.273438 218.429688 210.984375 C 219.988281 209.726562 220.207031 207.398438 218.921875 205.839844 Z M 218.921875 205.839844 " fill-opacity="1" fill-rule="nonzero"/><path fill="#a61b1c" d="M 235.617188 191.414062 C 234.25 189.882812 231.894531 189.71875 230.390625 191.085938 C 228.886719 192.453125 228.722656 194.753906 230.0625 196.3125 C 231.402344 197.847656 233.757812 198.039062 235.289062 196.667969 C 236.851562 195.300781 236.988281 192.945312 235.617188 191.414062 Z M 235.617188 191.414062 " fill-opacity="1" fill-rule="nonzero"/><path fill="#a61b1c" d="M 252.070312 176.167969 C 250.617188 174.664062 248.265625 174.636719 246.757812 176.03125 C 245.28125 177.453125 245.199219 179.835938 246.621094 181.339844 C 248.046875 182.847656 250.425781 182.929688 251.933594 181.503906 C 253.464844 180.082031 253.492188 177.671875 252.070312 176.167969 Z M 252.070312 176.167969 " fill-opacity="1" fill-rule="nonzero"/><path fill="#a61b1c" d="M 268.164062 160.320312 C 266.6875 158.839844 264.25 158.8125 262.800781 160.292969 C 261.320312 161.742188 261.347656 164.152344 262.800781 165.628906 C 264.25 167.109375 266.660156 167.109375 268.136719 165.628906 C 269.640625 164.152344 269.667969 161.796875 268.164062 160.320312 Z M 268.164062 160.320312 " fill-opacity="1" fill-rule="nonzero"/><path fill="#a61b1c" d="M 283.820312 144.167969 C 282.316406 142.746094 279.960938 142.800781 278.511719 144.277344 C 277.085938 145.757812 277.140625 148.140625 278.621094 149.5625 C 280.125 151.011719 282.480469 150.957031 283.929688 149.453125 C 285.382812 147.945312 285.300781 145.59375 283.820312 144.167969 Z M 283.820312 144.167969 " fill-opacity="1" fill-rule="nonzero"/><path fill="#a61b1c" d="M 298.984375 128.046875 C 297.507812 126.679688 295.179688 126.734375 293.785156 128.210938 C 292.390625 129.664062 292.5 132.015625 293.976562 133.414062 C 295.453125 134.808594 297.78125 134.726562 299.148438 133.25 C 300.574219 131.742188 300.492188 129.445312 298.984375 128.046875 Z M 298.984375 128.046875 " fill-opacity="1" fill-rule="nonzero"/><path fill="#a61b1c" d="M 308.566406 112.417969 C 307.25 113.867188 307.359375 116.140625 308.8125 117.453125 C 310.289062 118.796875 312.535156 118.6875 313.847656 117.207031 C 315.164062 115.730469 315.054688 113.484375 313.601562 112.171875 C 312.152344 110.859375 309.90625 110.96875 308.566406 112.417969 Z M 308.566406 112.417969 " fill-opacity="1" fill-rule="nonzero"/><path fill="#a61b1c" d="M 328.847656 99.582031 C 329.121094 97.636719 327.753906 95.859375 325.808594 95.609375 C 323.867188 95.363281 322.085938 96.707031 321.839844 98.59375 C 321.59375 100.511719 322.964844 102.261719 324.878906 102.5625 C 326.796875 102.835938 328.574219 101.523438 328.847656 99.582031 Z M 328.847656 99.582031 " fill-opacity="1" fill-rule="nonzero"/><path fill="#a61b1c" d="M 342.453125 83.867188 C 342.671875 81.898438 341.277344 80.117188 339.277344 79.898438 C 337.304688 79.679688 335.527344 81.078125 335.308594 83.019531 C 335.089844 84.964844 336.484375 86.742188 338.457031 86.960938 C 340.425781 87.207031 342.207031 85.839844 342.453125 83.867188 Z M 342.453125 83.867188 " fill-opacity="1" fill-rule="nonzero"/><path fill="#a61b1c" d="M 355.480469 68.046875 C 355.671875 66.078125 354.222656 64.324219 352.222656 64.132812 C 350.226562 63.941406 348.472656 65.390625 348.28125 67.335938 C 348.089844 69.304688 349.542969 71.058594 351.539062 71.25 C 353.539062 71.46875 355.316406 70.046875 355.480469 68.046875 Z M 355.480469 68.046875 " fill-opacity="1" fill-rule="nonzero"/><path fill="#a61b1c" d="M 368.128906 52.007812 C 368.265625 50.035156 366.785156 48.339844 364.789062 48.175781 C 362.816406 48.039062 361.066406 49.488281 360.929688 51.460938 C 360.792969 53.429688 362.269531 55.15625 364.269531 55.292969 C 366.265625 55.457031 367.992188 53.976562 368.128906 52.007812 Z M 368.128906 52.007812 " fill-opacity="1" fill-rule="nonzero"/><path fill="#a61b1c" d="M 373.355469 35.171875 C 373.273438 36.460938 373.957031 37.609375 375 38.265625 L 375 32.464844 C 374.09375 33.066406 373.4375 34.023438 373.355469 35.171875 Z M 373.355469 35.171875 " fill-opacity="1" fill-rule="nonzero"/><path fill="#a61b1c" d="M 9.332031 344.589844 C 8.457031 342.726562 6.210938 341.933594 4.378906 342.808594 C 2.515625 343.6875 1.75 345.902344 2.625 347.765625 C 3.5 349.625 5.71875 350.390625 7.582031 349.542969 C 9.414062 348.667969 10.207031 346.449219 9.332031 344.589844 Z M 9.332031 344.589844 " fill-opacity="1" fill-rule="nonzero"/><path fill="#a61b1c" d="M 29.585938 334.953125 C 28.683594 333.09375 26.46875 332.300781 24.578125 333.203125 C 22.71875 334.105469 21.921875 336.324219 22.800781 338.183594 C 23.703125 340.046875 25.945312 340.894531 27.808594 339.964844 C 29.695312 339.085938 30.492188 336.816406 29.585938 334.953125 Z M 29.585938 334.953125 " fill-opacity="1" fill-rule="nonzero"/><path fill="#a61b1c" d="M 50.007812 325.292969 C 49.132812 323.402344 46.886719 322.609375 45 323.484375 C 43.109375 324.359375 42.316406 326.605469 43.191406 328.496094 C 44.09375 330.382812 46.339844 331.203125 48.226562 330.328125 C 50.117188 329.453125 50.910156 327.207031 50.007812 325.292969 Z M 50.007812 325.292969 " fill-opacity="1" fill-rule="nonzero"/><path fill="#a61b1c" d="M 68.703125 320.695312 C 70.589844 319.789062 71.414062 317.546875 70.507812 315.65625 C 69.632812 313.769531 67.390625 312.945312 65.5 313.824219 C 63.609375 314.726562 62.789062 316.972656 63.695312 318.859375 C 64.597656 320.75 66.8125 321.597656 68.703125 320.695312 Z M 68.703125 320.695312 " fill-opacity="1" fill-rule="nonzero"/><path fill="#a61b1c" d="M 89.175781 311.195312 C 91.039062 310.265625 91.859375 308.074219 91.011719 306.1875 C 90.136719 304.324219 87.917969 303.449219 86.054688 304.351562 C 84.195312 305.253906 83.347656 307.472656 84.222656 309.359375 C 85.070312 311.25 87.316406 312.097656 89.175781 311.195312 Z M 89.175781 311.195312 " fill-opacity="1" fill-rule="nonzero"/><path fill="#a61b1c" d="M 111.210938 296.824219 C 110.335938 294.964844 108.199219 294.222656 106.339844 295.046875 C 104.476562 295.867188 103.65625 298.054688 104.503906 299.917969 C 105.355469 301.777344 107.570312 302.601562 109.433594 301.75 C 111.320312 300.929688 112.058594 298.660156 111.210938 296.824219 Z M 111.210938 296.824219 " fill-opacity="1" fill-rule="nonzero"/><path fill="#a61b1c" d="M 126.046875 285.710938 C 124.269531 286.585938 123.527344 288.75 124.40625 290.554688 C 125.28125 292.363281 127.445312 293.101562 129.25 292.199219 C 131.054688 291.296875 131.796875 289.160156 130.890625 287.382812 C 129.988281 285.601562 127.828125 284.835938 126.046875 285.710938 Z M 126.046875 285.710938 " fill-opacity="1" fill-rule="nonzero"/><path fill="#a61b1c" d="M 143.484375 280.730469 C 144.414062 282.453125 146.550781 283.054688 148.273438 282.097656 C 149.972656 281.113281 150.546875 278.949219 149.585938 277.28125 C 148.628906 275.609375 146.523438 275.035156 144.824219 275.96875 C 143.15625 276.871094 142.527344 279.03125 143.484375 280.730469 Z M 143.484375 280.730469 " fill-opacity="1" fill-rule="nonzero"/><path fill="#a61b1c" d="M 160.917969 267.480469 C 160.507812 269.398438 161.6875 271.257812 163.601562 271.695312 C 165.492188 272.136719 167.40625 270.929688 167.816406 268.988281 C 168.226562 267.042969 167.023438 265.15625 165.136719 264.773438 C 163.191406 264.359375 161.332031 265.566406 160.917969 267.480469 Z M 160.917969 267.480469 " fill-opacity="1" fill-rule="nonzero"/><path fill="#a61b1c" d="M 184.707031 257 C 185.007812 255.054688 183.667969 253.25 181.75 252.945312 C 179.832031 252.644531 178.027344 253.988281 177.726562 255.929688 C 177.425781 257.875 178.738281 259.679688 180.683594 260.007812 C 182.597656 260.308594 184.40625 258.941406 184.707031 257 Z M 184.707031 257 " fill-opacity="1" fill-rule="nonzero"/><path fill="#a61b1c" d="M 200.855469 243.914062 C 201.019531 241.972656 199.597656 240.273438 197.707031 240.109375 C 195.792969 239.917969 194.09375 241.339844 193.902344 243.285156 C 193.710938 245.226562 195.136719 246.980469 197.078125 247.144531 C 198.996094 247.308594 200.691406 245.859375 200.855469 243.914062 Z M 200.855469 243.914062 " fill-opacity="1" fill-rule="nonzero"/><path fill="#a61b1c" d="M 215.773438 227.355469 C 214.433594 225.902344 212.1875 225.792969 210.765625 227.109375 C 209.339844 228.421875 209.230469 230.667969 210.519531 232.117188 C 211.832031 233.566406 214.050781 233.703125 215.527344 232.363281 C 216.976562 231.050781 217.085938 228.804688 215.773438 227.355469 Z M 215.773438 227.355469 " fill-opacity="1" fill-rule="nonzero"/><path fill="#a61b1c" d="M 231.511719 212.546875 C 230.117188 211.066406 227.816406 211.039062 226.367188 212.410156 C 224.917969 213.777344 224.859375 216.078125 226.230469 217.554688 C 227.597656 219.003906 229.898438 219.085938 231.347656 217.691406 C 232.855469 216.351562 232.910156 214.023438 231.511719 212.546875 Z M 231.511719 212.546875 " fill-opacity="1" fill-rule="nonzero"/><path fill="#a61b1c" d="M 247.390625 197.191406 C 245.964844 195.710938 243.582031 195.683594 242.132812 197.109375 C 240.683594 198.558594 240.65625 200.886719 242.078125 202.363281 C 243.5 203.8125 245.855469 203.894531 247.304688 202.445312 C 248.785156 200.996094 248.839844 198.667969 247.390625 197.191406 Z M 247.390625 197.191406 " fill-opacity="1" fill-rule="nonzero"/><path fill="#a61b1c" d="M 263.375 181.394531 C 261.921875 179.917969 259.515625 179.917969 258.0625 181.367188 C 256.585938 182.820312 256.585938 185.226562 258.035156 186.707031 C 259.488281 188.183594 261.867188 188.183594 263.347656 186.734375 C 264.851562 185.28125 264.851562 182.875 263.375 181.394531 Z M 263.375 181.394531 " fill-opacity="1" fill-rule="nonzero"/><path fill="#a61b1c" d="M 279.441406 165.464844 C 277.964844 163.988281 275.554688 163.933594 274.078125 165.410156 C 272.597656 166.890625 272.597656 169.269531 274.050781 170.75 C 275.527344 172.226562 277.910156 172.253906 279.386719 170.777344 C 280.890625 169.296875 280.917969 166.945312 279.441406 165.464844 Z M 279.441406 165.464844 " fill-opacity="1" fill-rule="nonzero"/><path fill="#a61b1c" d="M 295.507812 149.644531 C 294.058594 148.167969 291.703125 148.136719 290.199219 149.5625 C 288.722656 151.011719 288.695312 153.367188 290.144531 154.84375 C 291.59375 156.324219 293.976562 156.351562 295.453125 154.898438 C 296.933594 153.476562 296.933594 151.09375 295.507812 149.644531 Z M 295.507812 149.644531 " fill-opacity="1" fill-rule="nonzero"/><path fill="#a61b1c" d="M 311.386719 139.515625 C 312.835938 138.121094 312.917969 135.820312 311.523438 134.34375 C 310.152344 132.863281 307.828125 132.808594 306.320312 134.179688 C 304.84375 135.546875 304.789062 137.875 306.183594 139.378906 C 307.609375 140.832031 309.933594 140.886719 311.386719 139.515625 Z M 311.386719 139.515625 " fill-opacity="1" fill-rule="nonzero"/><path fill="#a61b1c" d="M 322.332031 119.480469 C 320.882812 120.820312 320.800781 123.066406 322.140625 124.515625 C 323.484375 125.96875 325.753906 126.050781 327.179688 124.707031 C 328.601562 123.367188 328.710938 121.121094 327.371094 119.671875 C 326.054688 118.25 323.785156 118.136719 322.332031 119.480469 Z M 322.332031 119.480469 " fill-opacity="1" fill-rule="nonzero"/><path fill="#a61b1c" d="M 343.847656 108.011719 C 343.929688 106.066406 342.398438 104.425781 340.453125 104.371094 C 338.484375 104.316406 336.867188 105.820312 336.8125 107.738281 C 336.757812 109.652344 338.292969 111.269531 340.207031 111.351562 C 342.125 111.433594 343.765625 109.953125 343.847656 108.011719 Z M 343.847656 108.011719 " fill-opacity="1" fill-rule="nonzero"/><path fill="#a61b1c" d="M 359.066406 93.996094 C 359.121094 92.027344 357.5625 90.382812 355.589844 90.328125 C 353.621094 90.273438 351.949219 91.832031 351.921875 93.777344 C 351.894531 95.722656 353.429688 97.363281 355.398438 97.417969 C 357.34375 97.5 359.011719 95.96875 359.066406 93.996094 Z M 359.066406 93.996094 " fill-opacity="1" fill-rule="nonzero"/><path fill="#a61b1c" d="M 373.875 79.980469 C 373.902344 78.011719 372.316406 76.394531 370.316406 76.367188 C 368.320312 76.339844 366.703125 77.929688 366.675781 79.871094 C 366.648438 81.84375 368.238281 83.457031 370.234375 83.484375 C 372.207031 83.539062 373.847656 81.980469 373.875 79.980469 Z M 373.875 79.980469 " fill-opacity="1" fill-rule="nonzero"/><path fill="#a61b1c" d="M 8.976562 371.960938 C 8.210938 370.046875 6.046875 369.167969 4.160156 369.910156 C 2.269531 370.675781 1.367188 372.808594 2.105469 374.699219 C 2.871094 376.585938 5.007812 377.519531 6.921875 376.777344 C 8.839844 376.039062 9.742188 373.851562 8.976562 371.960938 Z M 8.976562 371.960938 " fill-opacity="1" fill-rule="nonzero"/><path fill="#a61b1c" d="M 24.714844 361.421875 C 22.828125 362.21875 21.921875 364.40625 22.71875 366.296875 C 23.511719 368.183594 25.699219 369.058594 27.617188 368.292969 C 29.53125 367.5 30.410156 365.308594 29.613281 363.421875 C 28.792969 361.53125 26.605469 360.628906 24.714844 361.421875 Z M 24.714844 361.421875 " fill-opacity="1" fill-rule="nonzero"/><path fill="#a61b1c" d="M 50.253906 354.472656 C 49.40625 352.582031 47.1875 351.707031 45.300781 352.554688 C 43.410156 353.429688 42.535156 355.59375 43.355469 357.480469 C 44.175781 359.371094 46.421875 360.273438 48.308594 359.425781 C 50.226562 358.578125 51.101562 356.359375 50.253906 354.472656 Z M 50.253906 354.472656 " fill-opacity="1" fill-rule="nonzero"/><path fill="#a61b1c" d="M 69.03125 350.199219 C 70.945312 349.351562 71.769531 347.109375 70.890625 345.191406 C 70.015625 343.304688 67.800781 342.480469 65.882812 343.332031 C 63.996094 344.179688 63.144531 346.421875 63.996094 348.3125 C 64.898438 350.199219 67.140625 351.050781 69.03125 350.199219 Z M 69.03125 350.199219 " fill-opacity="1" fill-rule="nonzero"/><path fill="#a61b1c" d="M 89.667969 340.59375 C 91.558594 339.691406 92.351562 337.417969 91.476562 335.554688 C 90.574219 333.667969 88.328125 332.875 86.441406 333.777344 C 84.550781 334.679688 83.757812 336.953125 84.632812 338.839844 C 85.507812 340.730469 87.78125 341.496094 89.667969 340.59375 Z M 89.667969 340.59375 " fill-opacity="1" fill-rule="nonzero"/><path fill="#a61b1c" d="M 110.117188 330.65625 C 111.949219 329.671875 112.71875 327.453125 111.785156 325.59375 C 110.855469 323.757812 108.609375 322.964844 106.777344 323.921875 C 104.945312 324.882812 104.175781 327.097656 105.082031 328.988281 C 105.984375 330.847656 108.28125 331.640625 110.117188 330.65625 Z M 110.117188 330.65625 " fill-opacity="1" fill-rule="nonzero"/><path fill="#a61b1c" d="M 131.660156 315.328125 C 130.671875 313.523438 128.511719 312.917969 126.675781 313.824219 C 124.871094 314.753906 124.160156 316.972656 125.089844 318.804688 C 126.046875 320.609375 128.292969 321.324219 130.125 320.390625 C 131.988281 319.40625 132.617188 317.082031 131.660156 315.328125 Z M 131.660156 315.328125 " fill-opacity="1" fill-rule="nonzero"/><path fill="#a61b1c" d="M 144.441406 308.128906 C 145.453125 309.882812 147.671875 310.429688 149.421875 309.417969 C 151.175781 308.375 151.75 306.1875 150.710938 304.460938 C 149.667969 302.765625 147.453125 302.191406 145.726562 303.175781 C 144.003906 304.1875 143.429688 306.40625 144.441406 308.128906 Z M 144.441406 308.128906 " fill-opacity="1" fill-rule="nonzero"/><path fill="#a61b1c" d="M 167.679688 297.589844 C 169.296875 296.441406 169.652344 294.195312 168.527344 292.636719 C 167.378906 291.050781 165.21875 290.695312 163.65625 291.789062 C 162.070312 292.882812 161.660156 295.074219 162.753906 296.6875 C 163.820312 298.332031 166.039062 298.714844 167.679688 297.589844 Z M 167.679688 297.589844 " fill-opacity="1" fill-rule="nonzero"/><path fill="#a61b1c" d="M 181.257812 285.328125 C 183.117188 285.929688 185.144531 284.917969 185.71875 283 C 186.320312 281.085938 185.28125 279.085938 183.417969 278.511719 C 181.558594 277.9375 179.558594 278.976562 178.984375 280.839844 C 178.410156 282.726562 179.394531 284.726562 181.257812 285.328125 Z M 181.257812 285.328125 " fill-opacity="1" fill-rule="nonzero"/><path fill="#a61b1c" d="M 198.75 264.71875 C 196.832031 264.25 194.945312 265.429688 194.449219 267.34375 C 193.957031 269.261719 195.136719 271.203125 197.023438 271.667969 C 198.941406 272.164062 200.855469 270.957031 201.347656 269.042969 C 201.8125 267.097656 200.636719 265.183594 198.75 264.71875 Z M 198.75 264.71875 " fill-opacity="1" fill-rule="nonzero"/><path fill="#a61b1c" d="M 213.335938 249.992188 C 211.449219 249.636719 209.585938 250.867188 209.203125 252.78125 C 208.820312 254.699219 210.082031 256.585938 211.996094 256.945312 C 213.914062 257.300781 215.773438 256.039062 216.128906 254.125 C 216.457031 252.207031 215.226562 250.375 213.335938 249.992188 Z M 213.335938 249.992188 " fill-opacity="1" fill-rule="nonzero"/><path fill="#a61b1c" d="M 229.488281 235.347656 C 228.035156 234.003906 225.765625 234.113281 224.449219 235.566406 C 223.136719 237.015625 223.246094 239.289062 224.667969 240.601562 C 226.121094 241.945312 228.363281 241.832031 229.707031 240.382812 C 231.046875 238.933594 230.9375 236.6875 229.488281 235.347656 Z M 229.488281 235.347656 " fill-opacity="1" fill-rule="nonzero"/><path fill="#a61b1c" d="M 244.105469 219.277344 C 242.625 217.910156 240.300781 218.019531 238.957031 219.527344 C 237.617188 221.03125 237.726562 223.332031 239.203125 224.671875 C 240.683594 226.011719 242.980469 225.929688 244.351562 224.425781 C 245.691406 222.945312 245.609375 220.648438 244.105469 219.277344 Z M 244.105469 219.277344 " fill-opacity="1" fill-rule="nonzero"/><path fill="#a61b1c" d="M 259.160156 202.964844 C 257.652344 201.570312 255.273438 201.625 253.902344 203.15625 C 252.535156 204.691406 252.589844 207.015625 254.09375 208.414062 C 255.601562 209.808594 257.953125 209.753906 259.324219 208.222656 C 260.71875 206.714844 260.664062 204.386719 259.160156 202.964844 Z M 259.160156 202.964844 " fill-opacity="1" fill-rule="nonzero"/><path fill="#a61b1c" d="M 274.707031 186.652344 C 273.226562 185.199219 270.820312 185.226562 269.367188 186.761719 C 267.917969 188.265625 267.972656 190.675781 269.476562 192.097656 C 270.984375 193.523438 273.363281 193.496094 274.789062 191.988281 C 276.210938 190.484375 276.183594 188.101562 274.707031 186.652344 Z M 274.707031 186.652344 " fill-opacity="1" fill-rule="nonzero"/><path fill="#a61b1c" d="M 290.71875 170.582031 C 289.269531 169.078125 286.832031 169.023438 285.355469 170.527344 C 283.847656 172.007812 283.847656 174.390625 285.300781 175.894531 C 286.777344 177.371094 289.160156 177.398438 290.636719 175.921875 C 292.113281 174.445312 292.195312 172.089844 290.71875 170.582031 Z M 290.71875 170.582031 " fill-opacity="1" fill-rule="nonzero"/><path fill="#a61b1c" d="M 307.195312 155.117188 C 305.800781 153.558594 303.445312 153.476562 301.886719 154.871094 C 300.328125 156.269531 300.246094 158.648438 301.640625 160.183594 C 303.035156 161.714844 305.417969 161.796875 306.949219 160.429688 C 308.484375 159.003906 308.59375 156.625 307.195312 155.117188 Z M 307.195312 155.117188 " fill-opacity="1" fill-rule="nonzero"/><path fill="#a61b1c" d="M 318.886719 140.144531 C 317.296875 141.433594 317.105469 143.757812 318.417969 145.347656 C 319.734375 146.878906 322.03125 147.070312 323.59375 145.8125 C 325.125 144.527344 325.34375 142.199219 324.058594 140.636719 C 322.800781 139.050781 320.472656 138.832031 318.886719 140.144531 Z M 318.886719 140.144531 " fill-opacity="1" fill-rule="nonzero"/><path fill="#a61b1c" d="M 341.140625 127.199219 C 339.933594 125.640625 337.691406 125.335938 336.101562 126.542969 C 334.515625 127.746094 334.242188 129.992188 335.472656 131.578125 C 336.703125 133.140625 338.949219 133.441406 340.507812 132.207031 C 342.042969 131.003906 342.316406 128.757812 341.140625 127.199219 Z M 341.140625 127.199219 " fill-opacity="1" fill-rule="nonzero"/><path fill="#a61b1c" d="M 358.820312 116.414062 C 358.710938 114.472656 357.015625 112.964844 355.042969 113.101562 C 353.074219 113.238281 351.59375 114.910156 351.730469 116.851562 C 351.867188 118.769531 353.566406 120.246094 355.480469 120.136719 C 357.453125 120.027344 358.929688 118.386719 358.820312 116.414062 Z M 358.820312 116.414062 " fill-opacity="1" fill-rule="nonzero"/><path fill="#a61b1c" d="M 371.878906 100.785156 C 369.878906 100.921875 368.375 102.589844 368.511719 104.5625 C 368.648438 106.53125 370.34375 108.011719 372.316406 107.902344 C 373.464844 107.847656 374.421875 107.21875 375.027344 106.339844 L 375.027344 102.34375 C 374.3125 101.359375 373.164062 100.703125 371.878906 100.785156 Z M 371.878906 100.785156 " fill-opacity="1" fill-rule="nonzero"/><path fill="#a61b1c" d="M 70.644531 377.328125 C 71.25 376.339844 71.386719 375.109375 70.917969 373.960938 C 70.125 372.042969 67.9375 371.113281 66.019531 371.90625 C 64.105469 372.726562 63.171875 374.863281 63.941406 376.804688 C 64.023438 377 64.105469 377.164062 64.214844 377.328125 Z M 70.644531 377.328125 " fill-opacity="1" fill-rule="nonzero"/><path fill="#a61b1c" d="M 91.804688 365.0625 C 90.957031 363.175781 88.738281 362.328125 86.824219 363.121094 C 84.90625 363.941406 84.03125 366.160156 84.851562 368.074219 C 85.671875 369.992188 87.917969 370.867188 89.859375 370.046875 C 91.804688 369.25 92.679688 367.007812 91.804688 365.0625 Z M 91.804688 365.0625 " fill-opacity="1" fill-rule="nonzero"/><path fill="#a61b1c" d="M 110.636719 360.464844 C 112.527344 359.535156 113.320312 357.289062 112.417969 355.402344 C 111.484375 353.511719 109.242188 352.746094 107.351562 353.648438 C 105.492188 354.554688 104.695312 356.824219 105.574219 358.714844 C 106.476562 360.601562 108.75 361.394531 110.636719 360.464844 Z M 110.636719 360.464844 " fill-opacity="1" fill-rule="nonzero"/><path fill="#a61b1c" d="M 131.054688 350.144531 C 132.890625 349.105469 133.601562 346.832031 132.589844 345 C 131.605469 343.195312 129.332031 342.480469 127.527344 343.496094 C 125.71875 344.507812 125.007812 346.75 125.964844 348.585938 C 126.921875 350.445312 129.222656 351.1875 131.054688 350.144531 Z M 131.054688 350.144531 " fill-opacity="1" fill-rule="nonzero"/><path fill="#a61b1c" d="M 152.078125 333.804688 C 150.984375 332.054688 148.765625 331.558594 146.988281 332.574219 C 145.207031 333.585938 144.632812 335.859375 145.644531 337.636719 C 146.6875 339.417969 148.984375 339.992188 150.792969 338.949219 C 152.652344 337.910156 153.144531 335.527344 152.078125 333.804688 Z M 152.078125 333.804688 " fill-opacity="1" fill-rule="nonzero"/><path fill="#a61b1c" d="M 169.625 326.632812 C 171.320312 325.457031 171.730469 323.183594 170.554688 321.570312 C 169.378906 319.953125 167.078125 319.515625 165.4375 320.667969 C 163.792969 321.789062 163.382812 324.058594 164.503906 325.757812 C 165.628906 327.398438 167.925781 327.808594 169.625 326.632812 Z M 169.625 326.632812 " fill-opacity="1" fill-rule="nonzero"/><path fill="#a61b1c" d="M 187.472656 307.964844 C 186.15625 306.488281 183.941406 306.351562 182.460938 307.609375 C 180.957031 308.867188 180.765625 311.113281 182.023438 312.644531 C 183.28125 314.179688 185.554688 314.371094 187.113281 313.054688 C 188.621094 311.742188 188.757812 309.445312 187.472656 307.964844 Z M 187.472656 307.964844 " fill-opacity="1" fill-rule="nonzero"/><path fill="#a61b1c" d="M 203.648438 297.042969 C 204.441406 295.183594 203.566406 293.046875 201.730469 292.308594 C 199.898438 291.570312 197.789062 292.417969 197.023438 294.25 C 196.285156 296.085938 197.078125 298.195312 198.914062 298.988281 C 200.746094 299.78125 202.882812 298.933594 203.648438 297.042969 Z M 203.648438 297.042969 " fill-opacity="1" fill-rule="nonzero"/><path fill="#a61b1c" d="M 215.746094 276.488281 C 213.859375 275.859375 211.832031 276.871094 211.175781 278.757812 C 210.519531 280.648438 211.503906 282.699219 213.390625 283.359375 C 215.28125 284.015625 217.332031 283 217.992188 281.085938 C 218.648438 279.167969 217.636719 277.117188 215.746094 276.488281 Z M 215.746094 276.488281 " fill-opacity="1" fill-rule="nonzero"/><path fill="#a61b1c" d="M 231.375 264.359375 C 231.921875 262.445312 230.855469 260.445312 228.96875 259.898438 C 227.078125 259.351562 225.082031 260.417969 224.503906 262.335938 C 223.929688 264.25 225 266.25 226.914062 266.824219 C 228.804688 267.371094 230.828125 266.277344 231.375 264.359375 Z M 231.375 264.359375 " fill-opacity="1" fill-rule="nonzero"/><path fill="#a61b1c" d="M 243.199219 243.339844 C 241.613281 242.136719 239.339844 242.4375 238.136719 244.023438 C 236.933594 245.636719 237.234375 247.882812 238.820312 249.085938 C 240.410156 250.292969 242.652344 249.992188 243.886719 248.402344 C 245.089844 246.816406 244.789062 244.542969 243.199219 243.339844 Z M 243.199219 243.339844 " fill-opacity="1" fill-rule="nonzero"/><path fill="#a61b1c" d="M 256.695312 225.984375 C 255.109375 224.699219 252.78125 224.972656 251.523438 226.585938 C 250.261719 228.203125 250.535156 230.527344 252.125 231.761719 C 253.710938 233.019531 256.011719 232.746094 257.269531 231.160156 C 258.527344 229.570312 258.28125 227.246094 256.695312 225.984375 Z M 256.695312 225.984375 " fill-opacity="1" fill-rule="nonzero"/><path fill="#a61b1c" d="M 270.929688 208.742188 C 269.367188 207.398438 266.960938 207.5625 265.644531 209.179688 C 264.332031 210.792969 264.523438 213.148438 266.082031 214.460938 C 267.671875 215.777344 270.027344 215.582031 271.339844 213.996094 C 272.652344 212.4375 272.515625 210.109375 270.929688 208.742188 Z M 270.929688 208.742188 " fill-opacity="1" fill-rule="nonzero"/><path fill="#a61b1c" d="M 286.011719 191.878906 C 284.503906 190.457031 282.070312 190.539062 280.671875 192.097656 C 279.25 193.660156 279.359375 196.066406 280.890625 197.464844 C 282.425781 198.859375 284.804688 198.75 286.203125 197.21875 C 287.597656 195.683594 287.542969 193.332031 286.011719 191.878906 Z M 286.011719 191.878906 " fill-opacity="1" fill-rule="nonzero"/><path fill="#a61b1c" d="M 301.996094 175.703125 C 300.546875 174.195312 298.109375 174.113281 296.632812 175.621094 C 295.125 177.097656 295.097656 179.507812 296.550781 180.984375 C 298.027344 182.464844 300.410156 182.492188 301.886719 181.039062 C 303.363281 179.589844 303.445312 177.234375 301.996094 175.703125 Z M 301.996094 175.703125 " fill-opacity="1" fill-rule="nonzero"/><path fill="#a61b1c" d="M 318.914062 160.59375 C 317.570312 158.976562 315.21875 158.8125 313.601562 160.183594 C 311.988281 161.550781 311.796875 163.933594 313.191406 165.492188 C 314.558594 167.054688 316.941406 167.246094 318.5 165.902344 C 320.035156 164.535156 320.226562 162.152344 318.914062 160.59375 Z M 318.914062 160.59375 " fill-opacity="1" fill-rule="nonzero"/><path fill="#a61b1c" d="M 336.621094 146.90625 C 335.445312 145.238281 333.117188 144.882812 331.421875 146.113281 C 329.722656 147.316406 329.394531 149.644531 330.628906 151.3125 C 331.859375 152.929688 334.160156 153.257812 335.800781 152.082031 C 337.445312 150.875 337.800781 148.550781 336.621094 146.90625 Z M 336.621094 146.90625 " fill-opacity="1" fill-rule="nonzero"/><path fill="#a61b1c" d="M 354.878906 134.726562 C 353.8125 133.027344 351.566406 132.535156 349.84375 133.632812 C 348.144531 134.726562 347.652344 136.972656 348.75 138.640625 C 349.84375 140.308594 352.085938 140.804688 353.757812 139.707031 C 355.453125 138.613281 355.945312 136.394531 354.878906 134.726562 Z M 354.878906 134.726562 " fill-opacity="1" fill-rule="nonzero"/><path fill="#a61b1c" d="M 373.820312 124.84375 C 373.519531 122.902344 371.660156 121.53125 369.6875 121.859375 C 367.71875 122.191406 366.375 124.023438 366.703125 125.96875 C 367.03125 127.910156 368.894531 129.222656 370.835938 128.921875 C 372.78125 128.59375 374.121094 126.789062 373.820312 124.84375 Z M 373.820312 124.84375 " fill-opacity="1" fill-rule="nonzero"/><path fill="#a61b1c" d="M 133.382812 375.273438 C 132.453125 373.414062 130.179688 372.644531 128.320312 373.550781 C 126.867188 374.289062 126.074219 375.792969 126.210938 377.328125 L 133.738281 377.328125 C 133.820312 376.640625 133.710938 375.929688 133.382812 375.273438 Z M 133.382812 375.273438 " fill-opacity="1" fill-rule="nonzero"/><path fill="#a61b1c" d="M 153.390625 364.433594 C 152.351562 362.65625 150.027344 362.027344 148.273438 363.09375 C 146.523438 364.160156 145.835938 366.40625 146.851562 368.238281 C 147.863281 370.074219 150.21875 370.757812 152.023438 369.636719 C 153.832031 368.539062 154.460938 366.242188 153.390625 364.433594 Z M 153.390625 364.433594 " fill-opacity="1" fill-rule="nonzero"/><path fill="#a61b1c" d="M 167.324219 351.324219 C 165.601562 352.417969 165.109375 354.746094 166.257812 356.46875 C 167.378906 358.195312 169.734375 358.6875 171.511719 357.535156 C 173.292969 356.386719 173.675781 353.949219 172.5 352.28125 C 171.320312 350.554688 169.078125 350.226562 167.324219 351.324219 Z M 167.324219 351.324219 " fill-opacity="1" fill-rule="nonzero"/><path fill="#a61b1c" d="M 185.089844 338.128906 C 183.5 339.386719 183.253906 341.714844 184.542969 343.332031 C 185.800781 344.945312 188.15625 345.191406 189.796875 343.851562 C 191.441406 342.535156 191.6875 340.210938 190.34375 338.648438 C 189.03125 337.117188 186.675781 336.871094 185.089844 338.128906 Z M 185.089844 338.128906 " fill-opacity="1" fill-rule="nonzero"/><path fill="#a61b1c" d="M 206.414062 323.292969 C 204.933594 321.898438 202.636719 321.980469 201.265625 323.429688 C 199.84375 324.828125 199.871094 327.152344 201.292969 328.605469 C 202.71875 330.054688 205.070312 330.027344 206.523438 328.550781 C 207.945312 327.042969 207.890625 324.691406 206.414062 323.292969 Z M 206.414062 323.292969 " fill-opacity="1" fill-rule="nonzero"/><path fill="#a61b1c" d="M 221.605469 311.085938 C 222.5625 309.25 221.878906 307.007812 220.070312 306.078125 C 218.265625 305.144531 216.046875 305.859375 215.117188 307.636719 C 214.1875 309.445312 214.816406 311.632812 216.59375 312.617188 C 218.375 313.605469 220.644531 312.945312 221.605469 311.085938 Z M 221.605469 311.085938 " fill-opacity="1" fill-rule="nonzero"/><path fill="#a61b1c" d="M 234.632812 293.128906 C 235.480469 291.242188 234.605469 289.050781 232.746094 288.230469 C 230.882812 287.410156 228.722656 288.285156 227.898438 290.144531 C 227.078125 292.007812 227.898438 294.195312 229.761719 295.019531 C 231.59375 295.894531 233.785156 295.019531 234.632812 293.128906 Z M 234.632812 293.128906 " fill-opacity="1" fill-rule="nonzero"/><path fill="#a61b1c" d="M 246.621094 274.570312 C 247.359375 272.683594 246.457031 270.519531 244.597656 269.78125 C 242.707031 269.042969 240.574219 269.945312 239.832031 271.859375 C 239.066406 273.75 239.972656 275.914062 241.859375 276.652344 C 243.722656 277.417969 245.882812 276.488281 246.621094 274.570312 Z M 246.621094 274.570312 " fill-opacity="1" fill-rule="nonzero"/><path fill="#a61b1c" d="M 258.0625 256.421875 C 259.132812 254.699219 258.667969 252.425781 256.941406 251.332031 C 255.21875 250.238281 252.917969 250.757812 251.851562 252.480469 C 250.753906 254.234375 251.277344 256.503906 253 257.574219 C 254.695312 258.667969 256.96875 258.148438 258.0625 256.421875 Z M 258.0625 256.421875 " fill-opacity="1" fill-rule="nonzero"/><path fill="#a61b1c" d="M 269.285156 232.691406 C 267.617188 231.515625 265.261719 231.953125 264.085938 233.675781 C 262.9375 235.402344 263.375 237.726562 265.070312 238.878906 C 266.769531 240.027344 269.066406 239.589844 270.21875 237.890625 C 271.394531 236.195312 270.984375 233.867188 269.285156 232.691406 Z M 269.285156 232.691406 " fill-opacity="1" fill-rule="nonzero"/><path fill="#a61b1c" d="M 282.699219 214.542969 C 281.082031 213.257812 278.675781 213.558594 277.386719 215.226562 C 276.128906 216.925781 276.429688 219.277344 278.101562 220.511719 C 279.742188 221.742188 282.097656 221.441406 283.355469 219.800781 C 284.585938 218.15625 284.339844 215.832031 282.699219 214.542969 Z M 282.699219 214.542969 " fill-opacity="1" fill-rule="nonzero"/><path fill="#a61b1c" d="M 297.316406 197.136719 C 295.78125 195.738281 293.320312 195.847656 291.949219 197.464844 C 290.554688 199.078125 290.71875 201.460938 292.304688 202.828125 C 293.894531 204.195312 296.277344 204.003906 297.617188 202.445312 C 298.957031 200.886719 298.875 198.53125 297.316406 197.136719 Z M 297.316406 197.136719 " fill-opacity="1" fill-rule="nonzero"/><path fill="#a61b1c" d="M 313.273438 180.847656 C 311.851562 179.316406 309.414062 179.234375 307.882812 180.738281 C 306.347656 182.246094 306.320312 184.625 307.800781 186.105469 C 309.277344 187.582031 311.660156 187.609375 313.136719 186.160156 C 314.613281 184.707031 314.695312 182.355469 313.273438 180.847656 Z M 313.273438 180.847656 " fill-opacity="1" fill-rule="nonzero"/><path fill="#a61b1c" d="M 330.601562 166.066406 C 329.3125 164.398438 326.960938 164.152344 325.289062 165.492188 C 323.621094 166.832031 323.347656 169.214844 324.6875 170.804688 C 326.027344 172.417969 328.382812 172.664062 330 171.378906 C 331.585938 170.089844 331.859375 167.683594 330.601562 166.066406 Z M 330.601562 166.066406 " fill-opacity="1" fill-rule="nonzero"/><path fill="#a61b1c" d="M 349.160156 153.175781 C 348.089844 151.421875 345.765625 150.929688 343.984375 152.054688 C 342.179688 153.175781 341.714844 155.5 342.863281 157.253906 C 344.011719 158.949219 346.3125 159.417969 348.035156 158.347656 C 349.734375 157.253906 350.253906 154.925781 349.160156 153.175781 Z M 349.160156 153.175781 " fill-opacity="1" fill-rule="nonzero"/><path fill="#a61b1c" d="M 368.648438 142.226562 C 367.71875 140.417969 365.472656 139.707031 363.636719 140.695312 C 361.804688 141.679688 361.121094 143.894531 362.105469 145.703125 C 363.089844 147.480469 365.335938 148.167969 367.113281 147.207031 C 368.867188 146.25 369.578125 144.03125 368.648438 142.226562 Z M 368.648438 142.226562 " fill-opacity="1" fill-rule="nonzero"/><path fill="#a61b1c" d="M 192.945312 370.757812 C 191.632812 369.085938 189.359375 368.894531 187.664062 370.074219 C 185.992188 371.277344 185.609375 373.605469 186.839844 375.300781 C 188.074219 377 190.480469 377.355469 192.207031 376.121094 C 193.957031 374.890625 194.230469 372.371094 192.945312 370.757812 Z M 192.945312 370.757812 " fill-opacity="1" fill-rule="nonzero"/><path fill="#a61b1c" d="M 210.191406 355.757812 C 208.710938 354.277344 206.304688 354.195312 204.796875 355.59375 C 203.292969 356.988281 203.210938 359.371094 204.605469 360.929688 C 206 362.492188 208.4375 362.546875 210 361.09375 C 211.558594 359.617188 211.667969 357.234375 210.191406 355.757812 Z M 210.191406 355.757812 " fill-opacity="1" fill-rule="nonzero"/><path fill="#a61b1c" d="M 225.355469 338.648438 C 223.683594 337.363281 221.359375 337.664062 220.070312 339.25 C 218.757812 340.8125 218.976562 343.195312 220.5625 344.5625 C 222.152344 345.929688 224.558594 345.683594 225.957031 344.042969 C 227.269531 342.34375 226.996094 339.910156 225.355469 338.648438 Z M 225.355469 338.648438 " fill-opacity="1" fill-rule="nonzero"/><path fill="#a61b1c" d="M 239.53125 325.128906 C 240.683594 323.320312 240.191406 320.96875 238.410156 319.871094 C 236.632812 318.777344 234.304688 319.296875 233.183594 321.050781 C 232.085938 322.800781 232.527344 325.128906 234.277344 326.277344 C 236 327.425781 238.382812 326.960938 239.53125 325.128906 Z M 239.53125 325.128906 " fill-opacity="1" fill-rule="nonzero"/><path fill="#a61b1c" d="M 251.277344 305.199219 C 252.316406 303.339844 251.605469 301.011719 249.769531 300.027344 C 247.910156 299.042969 245.664062 299.753906 244.652344 301.585938 C 243.636719 303.421875 244.324219 305.722656 246.128906 306.734375 C 247.9375 307.746094 250.234375 307.0625 251.277344 305.199219 Z M 251.277344 305.199219 " fill-opacity="1" fill-rule="nonzero"/><path fill="#a61b1c" d="M 261.894531 284.808594 C 262.855469 282.917969 262.113281 280.648438 260.226562 279.691406 C 258.363281 278.757812 256.09375 279.5 255.136719 281.386719 C 254.175781 283.277344 254.917969 285.546875 256.777344 286.503906 C 258.640625 287.4375 260.9375 286.667969 261.894531 284.808594 Z M 261.894531 284.808594 " fill-opacity="1" fill-rule="nonzero"/><path fill="#a61b1c" d="M 272.242188 264.445312 C 273.199219 262.582031 272.515625 260.308594 270.65625 259.324219 C 268.820312 258.339844 266.496094 259.078125 265.535156 260.941406 C 264.550781 262.828125 265.289062 265.128906 267.125 266.058594 C 268.957031 266.988281 271.257812 266.304688 272.242188 264.445312 Z M 272.242188 264.445312 " fill-opacity="1" fill-rule="nonzero"/><path fill="#a61b1c" d="M 283.191406 244.597656 C 284.230469 242.792969 283.683594 240.492188 281.90625 239.398438 C 280.125 238.304688 277.746094 238.90625 276.675781 240.738281 C 275.609375 242.574219 276.210938 244.925781 278.019531 245.96875 C 279.824219 247.007812 282.152344 246.40625 283.191406 244.597656 Z M 283.191406 244.597656 " fill-opacity="1" fill-rule="nonzero"/><path fill="#a61b1c" d="M 294.46875 220.320312 C 292.800781 219.113281 290.363281 219.5 289.160156 221.25 C 287.953125 223.027344 288.390625 225.382812 290.117188 226.558594 C 291.839844 227.738281 294.195312 227.273438 295.371094 225.574219 C 296.523438 223.878906 296.167969 221.550781 294.46875 220.320312 Z M 294.46875 220.320312 " fill-opacity="1" fill-rule="nonzero"/><path fill="#a61b1c" d="M 308.648438 202.363281 C 307.085938 200.996094 304.625 201.132812 303.28125 202.828125 C 301.914062 204.472656 302.132812 206.878906 303.75 208.195312 C 305.363281 209.507812 307.746094 209.289062 309.058594 207.699219 C 310.34375 206.085938 310.234375 203.757812 308.648438 202.363281 Z M 308.648438 202.363281 " fill-opacity="1" fill-rule="nonzero"/><path fill="#a61b1c" d="M 324.550781 185.96875 C 323.128906 184.433594 320.691406 184.324219 319.160156 185.859375 C 317.625 187.363281 317.570312 189.773438 319.050781 191.25 C 320.527344 192.726562 322.910156 192.753906 324.386719 191.332031 C 325.863281 189.855469 325.972656 187.5 324.550781 185.96875 Z M 324.550781 185.96875 " fill-opacity="1" fill-rule="nonzero"/><path fill="#a61b1c" d="M 342.289062 171.515625 C 341.054688 169.789062 338.703125 169.460938 336.976562 170.777344 C 335.253906 172.0625 334.898438 174.445312 336.183594 176.085938 C 337.472656 177.726562 339.851562 178.054688 341.496094 176.824219 C 343.136719 175.621094 343.492188 173.210938 342.289062 171.515625 Z M 342.289062 171.515625 " fill-opacity="1" fill-rule="nonzero"/><path fill="#a61b1c" d="M 361.695312 159.472656 C 360.710938 157.636719 358.382812 156.980469 356.523438 158.019531 C 354.632812 159.058594 354.003906 161.386719 355.070312 163.222656 C 356.140625 165 358.4375 165.601562 360.246094 164.617188 C 362.023438 163.632812 362.679688 161.304688 361.695312 159.472656 Z M 361.695312 159.472656 " fill-opacity="1" fill-rule="nonzero"/></svg>