<svg xmlns="http://www.w3.org/2000/svg" xmlns:xlink="http://www.w3.org/1999/xlink" aria-hidden="true" role="img" class="iconify iconify--ph" width="100%" height="100%" preserveAspectRatio="xMidYMid meet" viewBox="0 0 256 256"><path fill="currentColor" d="M144 216V40a8 8 0 0 0-8-8H40a8 8 0 0 0-8 8v176" opacity=".2"></path><path fill="currentColor" d="M240 208h-8V104a16 16 0 0 0-16-16h-64V40a16 16 0 0 0-16-16H40a16 16 0 0 0-16 16v168h-8a8 8 0 0 0 0 16h224a8 8 0 0 0 0-16Zm-24-104v104h-64V104ZM40 40h96v168H40Zm16 32a8 8 0 0 1 8-8h32a8 8 0 0 1 0 16H64a8 8 0 0 1-8-8Zm64 64a8 8 0 0 1-8 8H80a8 8 0 0 1 0-16h32a8 8 0 0 1 8 8Zm-16 40a8 8 0 0 1-8 8H64a8 8 0 0 1 0-16h32a8 8 0 0 1 8 8Zm96 0a8 8 0 0 1-8 8h-16a8 8 0 0 1 0-16h16a8 8 0 0 1 8 8Zm-32-40a8 8 0 0 1 8-8h16a8 8 0 0 1 0 16h-16a8 8 0 0 1-8-8Z"></path></svg>