<svg xmlns="http://www.w3.org/2000/svg" xmlns:xlink="http://www.w3.org/1999/xlink" aria-hidden="true" role="img" class="iconify iconify--ph" width="100%" height="100%" preserveAspectRatio="xMidYMid meet" viewBox="0 0 256 256"><path fill="currentColor" d="M152 216v-64h-48v64H40V115.5a7.9 7.9 0 0 1 2.6-5.9l80-72.7a8 8 0 0 1 10.8 0l80 72.7a8.3 8.3 0 0 1 2.6 5.9V216Z" opacity=".2"></path><path fill="currentColor" d="M240 208h-16v-92.5a15.7 15.7 0 0 0-5.3-11.8l-80-72.7a15.9 15.9 0 0 0-21.5 0l-80 72.7a16 16 0 0 0-5.2 11.8V208H16a8 8 0 0 0 0 16h224a8 8 0 0 0 0-16ZM48 115.5l80-72.7l80 72.7V208h-48v-48a16 16 0 0 0-16-16h-32a16 16 0 0 0-16 16v48H48Zm96 92.5h-32v-48h32Z"></path></svg>