<svg xmlns="http://www.w3.org/2000/svg" xmlns:xlink="http://www.w3.org/1999/xlink" width="50" zoomAndPan="magnify" viewBox="0 0 37.5 37.499999" height="50" preserveAspectRatio="xMidYMid meet" version="1.0"><defs><clipPath id="69dc4bd2c0"><path d="M 12.21875 10.933594 L 29.328125 10.933594 L 29.328125 26.6875 L 12.21875 26.6875 Z M 12.21875 10.933594 " clip-rule="nonzero"/></clipPath><clipPath id="dc323f3789"><path d="M 12.269531 19.640625 C 12.324219 19.160156 12.367188 19.019531 12.453125 18.941406 C 12.550781 18.855469 12.714844 18.8125 12.859375 18.777344 C 12.988281 18.757812 13.121094 18.777344 13.261719 18.769531 C 13.394531 18.769531 13.546875 18.789062 13.644531 18.757812 C 13.722656 18.722656 13.796875 18.648438 13.820312 18.636719 C 13.820312 18.636719 13.820312 18.636719 13.820312 18.625 C 13.832031 18.625 13.832031 18.625 13.84375 18.613281 C 13.851562 18.605469 13.875 18.59375 13.898438 18.582031 C 13.953125 18.539062 14.105469 18.429688 14.203125 18.351562 C 14.300781 18.277344 14.445312 18.167969 14.5 18.132812 C 14.519531 18.113281 14.519531 18.113281 14.53125 18.101562 C 14.542969 18.101562 14.5625 18.089844 14.574219 18.078125 C 14.585938 18.078125 14.609375 18.058594 14.609375 18.058594 C 14.609375 18.058594 14.640625 18.058594 14.652344 18.046875 C 14.664062 18.046875 14.695312 18.035156 14.695312 18.035156 C 14.695312 18.035156 14.71875 18.035156 14.738281 18.035156 C 14.75 18.035156 14.773438 18.035156 14.773438 18.035156 C 14.773438 18.035156 14.804688 18.035156 14.816406 18.046875 C 14.835938 18.046875 14.859375 18.046875 14.859375 18.046875 C 14.859375 18.058594 14.882812 18.066406 14.890625 18.066406 C 14.945312 18.058594 15.109375 17.902344 15.242188 17.828125 C 15.371094 17.738281 15.503906 17.652344 15.644531 17.566406 C 15.820312 17.46875 16.007812 17.367188 16.183594 17.269531 C 16.355469 17.183594 16.542969 17.085938 16.695312 16.996094 C 16.828125 16.929688 16.925781 16.875 17.046875 16.800781 C 17.175781 16.722656 17.320312 16.636719 17.4375 16.546875 C 17.546875 16.472656 17.648438 16.394531 17.746094 16.328125 C 17.855469 16.253906 17.953125 16.1875 18.074219 16.121094 C 18.183594 16.054688 18.304688 15.992188 18.421875 15.914062 C 18.554688 15.839844 18.695312 15.761719 18.847656 15.683594 C 19.003906 15.609375 19.1875 15.519531 19.339844 15.445312 C 19.472656 15.378906 19.605469 15.335938 19.722656 15.28125 C 19.84375 15.226562 19.953125 15.171875 20.0625 15.128906 C 20.160156 15.082031 20.25 15.039062 20.359375 14.996094 C 20.511719 14.929688 20.6875 14.84375 20.851562 14.765625 C 21.023438 14.679688 21.1875 14.601562 21.351562 14.515625 C 21.527344 14.425781 21.691406 14.339844 21.855469 14.253906 C 22.019531 14.175781 22.171875 14.089844 22.324219 14.011719 C 22.457031 13.9375 22.566406 13.871094 22.699219 13.792969 C 22.839844 13.726562 22.992188 13.652344 23.144531 13.585938 C 23.296875 13.519531 23.453125 13.464844 23.59375 13.410156 C 23.734375 13.355469 23.855469 13.3125 24 13.269531 C 24.140625 13.214844 24.28125 13.160156 24.4375 13.09375 C 24.609375 13.027344 24.773438 12.953125 24.960938 12.875 C 25.15625 12.796875 25.398438 12.691406 25.574219 12.613281 C 25.691406 12.570312 25.757812 12.535156 25.878906 12.492188 C 26.011719 12.425781 26.195312 12.351562 26.339844 12.285156 C 26.46875 12.230469 26.566406 12.175781 26.675781 12.121094 C 26.785156 12.066406 26.894531 12.023438 27.003906 11.980469 C 27.113281 11.925781 27.222656 11.871094 27.34375 11.816406 C 27.464844 11.761719 27.605469 11.695312 27.738281 11.628906 C 27.847656 11.574219 27.957031 11.519531 28.066406 11.453125 C 28.183594 11.386719 28.316406 11.300781 28.4375 11.222656 C 28.546875 11.171875 28.6875 11.070312 28.742188 11.039062 C 28.765625 11.027344 28.777344 11.027344 28.785156 11.015625 C 28.808594 11.015625 28.820312 11.007812 28.832031 11.007812 C 28.839844 11.007812 28.875 10.996094 28.875 10.996094 C 28.875 10.996094 28.894531 10.984375 28.917969 10.984375 C 28.929688 10.984375 28.960938 10.984375 28.960938 10.984375 C 28.960938 10.984375 28.984375 10.984375 29.003906 10.984375 C 29.015625 10.984375 29.050781 10.996094 29.050781 10.996094 C 29.050781 10.996094 29.070312 11.007812 29.09375 11.007812 C 29.105469 11.015625 29.125 11.027344 29.125 11.027344 C 29.125 11.027344 29.148438 11.039062 29.167969 11.050781 C 29.179688 11.0625 29.203125 11.070312 29.203125 11.070312 C 29.203125 11.070312 29.222656 11.09375 29.234375 11.105469 C 29.234375 11.117188 29.257812 11.136719 29.257812 11.136719 C 29.257812 11.136719 29.269531 11.171875 29.277344 11.179688 C 29.289062 11.191406 29.300781 11.214844 29.300781 11.214844 C 29.300781 11.214844 29.3125 11.246094 29.3125 11.257812 C 29.3125 11.277344 29.324219 11.300781 29.324219 11.300781 C 29.324219 11.300781 29.324219 11.332031 29.324219 11.34375 C 29.324219 11.367188 29.324219 11.386719 29.324219 11.386719 C 29.324219 11.386719 29.3125 11.421875 29.3125 11.433594 C 29.300781 11.441406 29.300781 11.476562 29.300781 11.476562 C 29.300781 11.476562 29.277344 11.496094 29.277344 11.519531 C 29.269531 11.53125 29.257812 11.550781 29.257812 11.550781 C 29.257812 11.550781 29.234375 11.574219 29.222656 11.585938 C 29.214844 11.597656 29.203125 11.617188 29.203125 11.617188 C 29.203125 11.617188 29.167969 11.640625 29.160156 11.640625 C 29.148438 11.652344 29.125 11.671875 29.125 11.671875 C 29.125 11.671875 28.875 11.878906 28.753906 11.96875 C 28.65625 12.035156 28.566406 12.078125 28.46875 12.132812 C 28.359375 12.1875 28.25 12.253906 28.140625 12.308594 C 28.03125 12.363281 27.921875 12.417969 27.8125 12.472656 C 27.703125 12.535156 27.59375 12.589844 27.484375 12.644531 C 27.375 12.691406 27.277344 12.746094 27.15625 12.796875 C 27.027344 12.851562 26.710938 12.984375 26.710938 12.984375 C 26.710938 12.984375 26.71875 12.984375 26.71875 12.984375 C 26.71875 12.984375 26.753906 12.984375 26.753906 12.984375 C 26.753906 12.984375 26.785156 12.996094 26.796875 12.996094 C 26.808594 12.996094 26.828125 13.007812 26.828125 13.007812 C 26.828125 13.007812 26.863281 13.015625 26.875 13.027344 C 26.882812 13.027344 26.90625 13.039062 26.90625 13.039062 C 26.90625 13.039062 26.929688 13.0625 26.929688 13.070312 C 26.9375 13.082031 26.960938 13.09375 26.960938 13.09375 C 26.960938 13.09375 26.984375 13.117188 26.984375 13.125 C 26.992188 13.136719 27.003906 13.160156 27.003906 13.160156 C 27.003906 13.160156 27.015625 13.179688 27.015625 13.203125 C 27.027344 13.214844 27.039062 13.234375 27.039062 13.234375 C 27.039062 13.234375 27.039062 13.257812 27.039062 13.269531 C 27.039062 13.289062 27.046875 13.3125 27.046875 13.3125 C 27.046875 13.3125 27.039062 13.335938 27.039062 13.355469 C 27.039062 13.367188 27.039062 13.390625 27.039062 13.390625 C 27.039062 13.390625 27.027344 13.410156 27.015625 13.433594 C 27.015625 13.445312 27.003906 13.464844 27.003906 13.464844 C 27.003906 13.464844 26.992188 13.488281 26.984375 13.5 C 26.972656 13.507812 26.960938 13.53125 26.960938 13.53125 C 26.960938 13.53125 26.9375 13.542969 26.929688 13.554688 C 26.917969 13.5625 26.90625 13.574219 26.90625 13.585938 C 26.894531 13.585938 26.894531 13.585938 26.882812 13.597656 C 26.839844 13.628906 26.675781 13.726562 26.566406 13.792969 C 26.457031 13.859375 26.359375 13.925781 26.238281 13.992188 C 26.128906 14.054688 26.011719 14.109375 25.890625 14.175781 C 25.769531 14.230469 25.617188 14.308594 25.527344 14.363281 C 25.472656 14.382812 25.441406 14.394531 25.386719 14.425781 C 25.320312 14.472656 25.234375 14.535156 25.144531 14.613281 C 25.046875 14.710938 24.925781 14.820312 24.808594 14.929688 C 24.675781 15.0625 24.523438 15.191406 24.390625 15.3125 C 24.273438 15.421875 24.183594 15.542969 24.042969 15.621094 C 23.84375 15.71875 23.351562 15.859375 23.289062 15.804688 C 23.253906 15.785156 23.296875 15.695312 23.289062 15.695312 C 23.277344 15.683594 23.253906 15.707031 23.234375 15.71875 C 23.167969 15.761719 22.980469 15.859375 22.882812 15.914062 C 22.785156 15.96875 22.644531 16.046875 22.632812 16.054688 C 22.632812 16.066406 22.632812 16.066406 22.632812 16.066406 C 22.632812 16.066406 22.632812 16.109375 22.632812 16.109375 C 22.632812 16.109375 22.621094 16.132812 22.609375 16.144531 C 22.609375 16.164062 22.597656 16.1875 22.597656 16.1875 C 22.597656 16.1875 22.589844 16.210938 22.578125 16.21875 C 22.566406 16.230469 22.554688 16.265625 22.554688 16.265625 C 22.554688 16.265625 22.535156 16.273438 22.523438 16.285156 C 22.511719 16.296875 22.488281 16.320312 22.488281 16.320312 C 22.488281 16.320312 22.316406 16.472656 22.207031 16.546875 C 22.074219 16.648438 21.824219 16.832031 21.757812 16.875 C 21.734375 16.898438 21.734375 16.898438 21.714844 16.910156 C 21.691406 16.921875 21.660156 16.953125 21.613281 16.984375 C 21.527344 17.050781 21.363281 17.171875 21.234375 17.269531 C 21.113281 17.359375 20.980469 17.457031 20.859375 17.554688 C 20.742188 17.652344 20.621094 17.75 20.5 17.859375 C 20.367188 17.96875 20.226562 18.089844 20.09375 18.210938 C 19.964844 18.332031 19.8125 18.496094 19.722656 18.570312 C 19.679688 18.613281 19.660156 18.636719 19.613281 18.679688 C 19.558594 18.734375 19.503906 18.855469 19.417969 18.910156 C 19.332031 18.964844 19.175781 19.03125 19.089844 19.007812 C 19.003906 18.976562 18.957031 18.769531 18.871094 18.757812 C 18.792969 18.746094 18.707031 18.855469 18.621094 18.921875 C 18.5 19.007812 18.3125 19.152344 18.214844 19.226562 C 18.171875 19.257812 18.105469 19.3125 18.105469 19.3125 C 18.105469 19.3125 18.085938 19.324219 18.074219 19.335938 C 18.0625 19.347656 18.039062 19.359375 18.039062 19.359375 C 18.039062 19.359375 18.019531 19.367188 17.996094 19.367188 C 17.984375 19.367188 17.964844 19.378906 17.964844 19.378906 C 17.964844 19.378906 17.929688 19.378906 17.921875 19.378906 C 17.910156 19.390625 17.898438 19.378906 17.886719 19.390625 C 17.875 19.390625 17.84375 19.414062 17.820312 19.433594 C 17.777344 19.46875 17.703125 19.523438 17.667969 19.542969 C 17.648438 19.566406 17.648438 19.566406 17.625 19.578125 C 17.570312 19.640625 17.328125 19.839844 17.210938 19.949219 C 17.121094 20.023438 17.046875 20.089844 16.957031 20.167969 C 16.859375 20.242188 16.761719 20.332031 16.675781 20.40625 C 16.574219 20.496094 16.421875 20.625 16.378906 20.660156 C 16.367188 20.671875 16.367188 20.671875 16.355469 20.679688 C 16.335938 20.714844 16.3125 20.789062 16.28125 20.84375 C 16.238281 20.933594 16.171875 21.042969 16.09375 21.128906 C 16.027344 21.226562 15.929688 21.304688 15.855469 21.402344 C 15.753906 21.511719 15.644531 21.632812 15.570312 21.730469 C 15.515625 21.796875 15.460938 21.871094 15.4375 21.917969 C 15.417969 21.949219 15.417969 21.960938 15.394531 21.992188 C 15.371094 22.046875 15.328125 22.136719 15.316406 22.210938 C 15.296875 22.300781 15.328125 22.386719 15.316406 22.496094 C 15.308594 22.625 15.273438 22.8125 15.242188 22.953125 C 15.21875 23.074219 15.1875 23.171875 15.15625 23.28125 C 15.121094 23.382812 15.066406 23.492188 15.023438 23.589844 C 14.980469 23.6875 14.945312 23.796875 14.882812 23.894531 C 14.816406 24.015625 14.707031 24.136719 14.617188 24.246094 C 14.53125 24.355469 14.433594 24.453125 14.335938 24.550781 C 14.246094 24.636719 14.160156 24.726562 14.09375 24.800781 C 14.039062 24.855469 13.972656 24.945312 13.972656 24.957031 C 13.972656 24.957031 13.953125 24.957031 13.941406 24.976562 C 13.917969 25.03125 13.960938 25.207031 13.972656 25.316406 C 13.972656 25.425781 13.984375 25.535156 13.984375 25.65625 C 13.984375 25.765625 13.996094 25.882812 13.984375 26.003906 C 13.972656 26.113281 13.941406 26.34375 13.941406 26.34375 C 13.941406 26.34375 13.929688 26.367188 13.929688 26.386719 C 13.917969 26.398438 13.917969 26.421875 13.90625 26.421875 C 13.90625 26.421875 13.898438 26.453125 13.886719 26.464844 C 13.886719 26.476562 13.863281 26.496094 13.863281 26.496094 C 13.863281 26.496094 13.84375 26.519531 13.832031 26.53125 C 13.832031 26.539062 13.808594 26.550781 13.808594 26.550781 C 13.808594 26.550781 13.777344 26.574219 13.765625 26.574219 C 13.753906 26.585938 13.734375 26.59375 13.734375 26.59375 C 13.734375 26.59375 13.699219 26.605469 13.6875 26.605469 C 13.679688 26.617188 13.644531 26.617188 13.644531 26.617188 C 13.644531 26.617188 13.625 26.628906 13.601562 26.628906 C 13.589844 26.628906 13.570312 26.628906 13.570312 26.628906 C 13.558594 26.628906 13.535156 26.617188 13.527344 26.617188 C 13.503906 26.617188 13.480469 26.605469 13.480469 26.605469 C 13.480469 26.605469 13.460938 26.59375 13.4375 26.585938 C 13.425781 26.585938 13.40625 26.574219 13.40625 26.574219 C 13.40625 26.574219 13.382812 26.550781 13.371094 26.539062 C 13.363281 26.53125 13.339844 26.519531 13.339844 26.519531 C 13.339844 26.519531 13.316406 26.496094 13.308594 26.484375 C 13.308594 26.476562 13.285156 26.453125 13.285156 26.453125 C 13.285156 26.453125 13.273438 26.421875 13.273438 26.410156 C 13.261719 26.398438 13.253906 26.367188 13.253906 26.367188 C 13.253906 26.367188 13.253906 26.34375 13.242188 26.332031 C 13.242188 26.3125 13.242188 26.289062 13.242188 26.289062 C 13.242188 26.289062 13.242188 26.257812 13.242188 26.246094 C 13.242188 26.222656 13.242188 26.203125 13.242188 26.203125 C 13.242188 26.203125 13.164062 25.851562 13.132812 25.730469 C 13.121094 25.644531 13.121094 25.523438 13.097656 25.511719 C 13.089844 25.503906 13.078125 25.511719 13.066406 25.523438 C 13.042969 25.523438 13.023438 25.523438 13.023438 25.523438 C 13.023438 25.523438 12.988281 25.523438 12.980469 25.523438 C 12.957031 25.523438 12.933594 25.523438 12.933594 25.523438 C 12.933594 25.523438 12.902344 25.511719 12.890625 25.511719 C 12.878906 25.511719 12.847656 25.503906 12.847656 25.503906 C 12.847656 25.503906 12.824219 25.492188 12.816406 25.480469 C 12.792969 25.46875 12.769531 25.457031 12.769531 25.457031 C 12.769531 25.457031 12.75 25.4375 12.738281 25.425781 C 12.726562 25.414062 12.707031 25.394531 12.707031 25.394531 C 12.707031 25.394531 12.695312 25.371094 12.683594 25.359375 C 12.683594 25.347656 12.660156 25.328125 12.660156 25.328125 C 12.660156 25.328125 12.652344 25.292969 12.652344 25.285156 C 12.652344 25.273438 12.640625 25.238281 12.640625 25.238281 C 12.640625 25.238281 12.628906 25.207031 12.628906 25.195312 C 12.628906 25.183594 12.628906 25.152344 12.628906 25.152344 C 12.628906 25.152344 12.628906 25.121094 12.640625 25.109375 C 12.640625 25.097656 12.640625 25.066406 12.640625 25.066406 C 12.640625 25.066406 12.652344 25.042969 12.660156 25.03125 C 12.660156 25.011719 12.671875 24.988281 12.671875 24.988281 C 12.671875 24.988281 12.628906 24.714844 12.617188 24.59375 C 12.605469 24.472656 12.617188 24.386719 12.605469 24.253906 C 12.605469 24.089844 12.585938 23.863281 12.574219 23.675781 C 12.5625 23.511719 12.550781 23.371094 12.542969 23.21875 C 12.519531 23.054688 12.519531 22.890625 12.507812 22.734375 C 12.496094 22.59375 12.488281 22.453125 12.464844 22.320312 C 12.453125 22.210938 12.441406 22.101562 12.433594 21.980469 C 12.410156 21.871094 12.398438 21.761719 12.386719 21.652344 C 12.367188 21.535156 12.355469 21.425781 12.34375 21.292969 C 12.332031 21.152344 12.3125 20.953125 12.300781 20.8125 C 12.300781 20.691406 12.300781 20.59375 12.289062 20.472656 C 12.289062 20.332031 12.277344 20.15625 12.277344 20.015625 C 12.269531 19.882812 12.269531 19.640625 12.269531 19.640625 M 14.390625 19.804688 C 14.433594 19.730469 14.433594 19.6875 14.433594 19.6875 C 14.433594 19.695312 14.390625 19.804688 14.390625 19.804688 " clip-rule="nonzero"/></clipPath><clipPath id="887ba5d03d"><path d="M 28.722656 10.082031 L 30.101562 10.082031 L 30.101562 11.347656 L 28.722656 11.347656 Z M 28.722656 10.082031 " clip-rule="nonzero"/></clipPath><clipPath id="b3d782762a"><path d="M 28.808594 10.777344 C 29.824219 10.054688 30 10.132812 30.054688 10.21875 C 30.109375 10.304688 30.066406 10.535156 30.011719 10.613281 C 29.976562 10.679688 29.902344 10.710938 29.835938 10.710938 C 29.75 10.722656 29.605469 10.679688 29.542969 10.625 C 29.488281 10.570312 29.453125 10.503906 29.453125 10.425781 C 29.453125 10.351562 29.488281 10.195312 29.5625 10.140625 C 29.648438 10.085938 29.867188 10.066406 29.957031 10.121094 C 30.042969 10.175781 30.121094 10.359375 30.085938 10.492188 C 30.011719 10.742188 29.300781 11.324219 29.050781 11.34375 C 28.917969 11.34375 28.777344 11.234375 28.730469 11.136719 C 28.699219 11.050781 28.808594 10.777344 28.808594 10.777344 " clip-rule="nonzero"/></clipPath><clipPath id="5b26abb360"><path d="M 14.6875 21.488281 L 17.878906 21.488281 L 17.878906 25.953125 L 14.6875 25.953125 Z M 14.6875 21.488281 " clip-rule="nonzero"/></clipPath><clipPath id="9927ff617b"><path d="M 16.945312 22.398438 C 15.996094 24.847656 15.910156 25.019531 15.753906 25.207031 C 15.625 25.382812 15.449219 25.609375 15.285156 25.65625 C 15.15625 25.699219 14.957031 25.65625 14.871094 25.578125 C 14.792969 25.503906 14.761719 25.371094 14.773438 25.25 C 14.78125 25.066406 14.9375 24.867188 15.089844 24.582031 C 15.394531 24.027344 16.226562 22.515625 16.609375 22.222656 C 16.738281 22.101562 16.828125 22.082031 16.96875 22.089844 C 17.164062 22.101562 17.492188 22.289062 17.648438 22.441406 C 17.765625 22.550781 17.875 22.714844 17.875 22.84375 C 17.886719 22.964844 17.8125 23.0625 17.703125 23.183594 C 17.503906 23.402344 16.957031 23.589844 16.640625 23.875 C 16.300781 24.179688 15.984375 24.847656 15.746094 24.976562 C 15.644531 25.042969 15.558594 25.042969 15.472656 25.019531 C 15.394531 25.011719 15.296875 24.957031 15.242188 24.878906 C 15.1875 24.792969 15.15625 24.671875 15.1875 24.519531 C 15.242188 24.246094 15.710938 23.808594 15.929688 23.371094 C 16.191406 22.84375 16.347656 21.796875 16.621094 21.589844 C 16.75 21.488281 16.945312 21.5 17.054688 21.554688 C 17.144531 21.597656 17.21875 21.707031 17.242188 21.851562 C 17.285156 22.199219 16.925781 23.074219 16.628906 23.699219 C 16.3125 24.398438 15.679688 25.589844 15.339844 25.839844 C 15.210938 25.9375 15.089844 25.960938 14.980469 25.929688 C 14.871094 25.882812 14.71875 25.699219 14.695312 25.589844 C 14.671875 25.503906 14.695312 25.382812 14.761719 25.316406 C 14.859375 25.230469 15.199219 25.175781 15.316406 25.238281 C 15.417969 25.285156 15.480469 25.457031 15.472656 25.566406 C 15.449219 25.6875 15.285156 25.894531 15.164062 25.929688 C 15.046875 25.949219 14.804688 25.828125 14.738281 25.730469 C 14.671875 25.632812 14.683594 25.457031 14.738281 25.359375 C 14.78125 25.261719 14.9375 25.175781 15.035156 25.152344 C 15.121094 25.140625 15.21875 25.164062 15.285156 25.207031 C 15.363281 25.273438 15.460938 25.425781 15.472656 25.523438 C 15.480469 25.609375 15.460938 25.699219 15.40625 25.765625 C 15.316406 25.851562 14.957031 25.90625 14.957031 25.917969 C 14.957031 25.929688 15.328125 25.828125 15.339844 25.839844 C 15.339844 25.851562 15.164062 25.9375 15.078125 25.9375 C 14.992188 25.9375 14.882812 25.90625 14.816406 25.828125 C 14.738281 25.742188 14.683594 25.589844 14.71875 25.402344 C 14.78125 24.933594 15.710938 23.863281 16.027344 23.171875 C 16.28125 22.625 16.324219 21.882812 16.554688 21.652344 C 16.675781 21.535156 16.859375 21.480469 16.96875 21.511719 C 17.078125 21.542969 17.210938 21.6875 17.242188 21.851562 C 17.296875 22.15625 17.011719 22.8125 16.792969 23.304688 C 16.554688 23.839844 16.105469 24.703125 15.820312 24.921875 C 15.699219 25.019531 15.582031 25.042969 15.472656 25.019531 C 15.371094 25 15.242188 24.902344 15.199219 24.800781 C 15.15625 24.703125 15.164062 24.582031 15.21875 24.441406 C 15.339844 24.144531 15.886719 23.535156 16.191406 23.261719 C 16.402344 23.0625 16.621094 22.945312 16.792969 22.867188 C 16.914062 22.8125 17.046875 22.757812 17.132812 22.789062 C 17.210938 22.835938 17.308594 23.042969 17.273438 23.085938 C 17.242188 23.140625 16.980469 23.097656 16.890625 23.03125 C 16.804688 22.964844 16.71875 22.726562 16.738281 22.703125 C 16.773438 22.691406 17.023438 22.8125 17.046875 22.953125 C 17.109375 23.359375 15.710938 25.347656 15.363281 25.609375 C 15.261719 25.6875 15.199219 25.699219 15.109375 25.6875 C 15.011719 25.675781 14.871094 25.589844 14.816406 25.503906 C 14.761719 25.414062 14.761719 25.292969 14.792969 25.164062 C 14.871094 24.921875 15.253906 24.660156 15.472656 24.289062 C 15.789062 23.742188 16.117188 22.40625 16.347656 22.113281 C 16.410156 22.027344 16.457031 21.992188 16.53125 21.972656 C 16.597656 21.949219 16.707031 21.949219 16.773438 21.980469 C 16.835938 22.015625 16.902344 22.089844 16.9375 22.15625 C 16.96875 22.222656 16.945312 22.398438 16.945312 22.398438 " clip-rule="nonzero"/></clipPath><clipPath id="7c76157613"><path d="M 1.324219 6.886719 L 35.648438 6.886719 L 35.648438 30.171875 L 1.324219 30.171875 Z M 1.324219 6.886719 " clip-rule="nonzero"/></clipPath></defs><g clip-path="url(#69dc4bd2c0)"><g clip-path="url(#dc323f3789)"><path fill="#a39e93" d="M 11.832031 10.546875 L 29.78125 10.546875 L 29.78125 27.078125 L 11.832031 27.078125 Z M 11.832031 10.546875 " fill-opacity="1" fill-rule="nonzero"/></g></g><g clip-path="url(#887ba5d03d)"><g clip-path="url(#b3d782762a)"><path fill="#a39e93" d="M 28.292969 9.640625 L 30.519531 9.640625 L 30.519531 11.78125 L 28.292969 11.78125 Z M 28.292969 9.640625 " fill-opacity="1" fill-rule="nonzero"/></g></g><g clip-path="url(#5b26abb360)"><g clip-path="url(#9927ff617b)"><path fill="#625d52" d="M 14.257812 21.074219 L 18.324219 21.074219 L 18.324219 26.378906 L 14.257812 26.378906 Z M 14.257812 21.074219 " fill-opacity="1" fill-rule="nonzero"/></g></g><g clip-path="url(#7c76157613)"><path fill="#100f0d" d="M 29.1875 28.742188 L 18.960938 22.328125 L 17.261719 21.261719 L 31.5625 10.714844 L 34.15625 8.796875 Z M 14.761719 25.582031 L 16.5 22.09375 L 17.753906 22.878906 Z M 30.890625 8.914062 L 11.839844 18.46875 L 3.675781 14.828125 Z M 15.933594 20.867188 C 15.925781 20.875 15.917969 20.882812 15.910156 20.890625 C 15.859375 20.933594 15.820312 20.984375 15.789062 21.042969 C 15.785156 21.046875 15.785156 21.050781 15.78125 21.050781 L 13.28125 26.066406 L 12.453125 19.402344 L 29.523438 10.839844 L 15.949219 20.855469 C 15.945312 20.859375 15.9375 20.863281 15.933594 20.867188 Z M 35.617188 7.433594 C 35.617188 7.410156 35.613281 7.390625 35.609375 7.371094 C 35.609375 7.347656 35.601562 7.328125 35.597656 7.308594 C 35.597656 7.304688 35.597656 7.296875 35.59375 7.292969 C 35.589844 7.28125 35.59375 7.269531 35.589844 7.253906 C 35.585938 7.253906 35.585938 7.25 35.585938 7.25 C 35.578125 7.226562 35.5625 7.207031 35.554688 7.1875 C 35.546875 7.175781 35.542969 7.164062 35.539062 7.148438 C 35.535156 7.144531 35.523438 7.140625 35.519531 7.128906 C 35.507812 7.117188 35.503906 7.101562 35.492188 7.085938 C 35.480469 7.074219 35.464844 7.066406 35.453125 7.050781 C 35.445312 7.042969 35.4375 7.035156 35.425781 7.027344 C 35.414062 7.015625 35.402344 7.003906 35.386719 6.992188 C 35.382812 6.988281 35.378906 6.984375 35.375 6.976562 C 35.367188 6.972656 35.359375 6.972656 35.351562 6.96875 C 35.332031 6.957031 35.3125 6.949219 35.292969 6.941406 C 35.269531 6.929688 35.242188 6.914062 35.21875 6.90625 C 35.21875 6.90625 35.21875 6.90625 35.214844 6.90625 C 35.207031 6.902344 35.191406 6.90625 35.179688 6.902344 C 35.15625 6.898438 35.136719 6.894531 35.113281 6.894531 C 35.085938 6.890625 35.0625 6.886719 35.035156 6.890625 C 35.019531 6.890625 35.003906 6.894531 34.988281 6.894531 C 34.972656 6.898438 34.960938 6.894531 34.949219 6.898438 L 1.789062 14.105469 C 1.554688 14.15625 1.382812 14.351562 1.355469 14.589844 C 1.332031 14.828125 1.464844 15.054688 1.683594 15.152344 L 11.34375 19.460938 L 12.410156 28.023438 C 12.414062 28.03125 12.417969 28.039062 12.421875 28.050781 C 12.425781 28.078125 12.433594 28.105469 12.445312 28.128906 C 12.453125 28.164062 12.464844 28.195312 12.484375 28.222656 C 12.492188 28.246094 12.511719 28.265625 12.527344 28.285156 C 12.546875 28.316406 12.570312 28.339844 12.597656 28.363281 C 12.609375 28.375 12.613281 28.386719 12.625 28.394531 C 12.636719 28.402344 12.648438 28.40625 12.664062 28.414062 C 12.6875 28.433594 12.714844 28.445312 12.746094 28.457031 C 12.773438 28.46875 12.796875 28.480469 12.828125 28.484375 C 12.839844 28.492188 12.851562 28.496094 12.867188 28.5 C 12.898438 28.503906 12.929688 28.507812 12.960938 28.507812 C 13.019531 28.507812 13.082031 28.496094 13.136719 28.476562 C 13.152344 28.46875 13.167969 28.460938 13.183594 28.457031 C 13.226562 28.4375 13.265625 28.414062 13.300781 28.382812 C 13.308594 28.375 13.320312 28.375 13.328125 28.363281 L 18.730469 23.492188 L 29.246094 30.085938 C 29.335938 30.144531 29.4375 30.171875 29.539062 30.171875 C 29.609375 30.171875 29.679688 30.15625 29.746094 30.128906 C 29.910156 30.066406 30.035156 29.925781 30.074219 29.75 L 35.601562 7.574219 C 35.605469 7.570312 35.601562 7.5625 35.605469 7.558594 C 35.609375 7.539062 35.605469 7.523438 35.609375 7.503906 C 35.613281 7.480469 35.617188 7.457031 35.617188 7.433594 " fill-opacity="1" fill-rule="nonzero"/></g></svg>