<svg xmlns="http://www.w3.org/2000/svg" xmlns:xlink="http://www.w3.org/1999/xlink" aria-hidden="true" role="img" class="iconify iconify--ph" width="100%" height="100%" preserveAspectRatio="xMidYMid meet" viewBox="0 0 256 256"><path fill="currentColor" d="M64 216a8 8 0 0 1-8-8v-42.7a27.6 27.6 0 0 1-14.1 2.6A28 28 0 1 1 56 114.7V72a8 8 0 0 1 8-8h46.7a27.6 27.6 0 0 1-2.6-14.1A28 28 0 1 1 161.3 64H208a8 8 0 0 1 8 8v42.7a27.6 27.6 0 0 0-14.1-2.6a28 28 0 1 0 14.1 53.2V208a8 8 0 0 1-8 8Z" opacity=".2"></path><path fill="currentColor" d="M220.3 158.5a8.1 8.1 0 0 0-7.7-.4a20.2 20.2 0 0 1-23.2-4.4a20 20 0 0 1 13.1-33.6a19.6 19.6 0 0 1 10.1 1.8a8.1 8.1 0 0 0 7.7-.4a8.2 8.2 0 0 0 3.7-6.8V72a16 16 0 0 0-16-16h-36.2c.1-1.3.2-2.7.2-4a36.1 36.1 0 0 0-38.3-35.9a36 36 0 0 0-33.6 33.3a36.4 36.4 0 0 0 .1 6.6H64a16 16 0 0 0-16 16v32.2l-4-.2a35.6 35.6 0 0 0-26.2 11.4a35.3 35.3 0 0 0-9.7 26.9a36 36 0 0 0 33.3 33.6a36.4 36.4 0 0 0 6.6-.1V208a16 16 0 0 0 16 16h144a16 16 0 0 0 16-16v-42.7a8.2 8.2 0 0 0-3.7-6.8ZM208 208H64v-42.7a8.2 8.2 0 0 0-3.7-6.8a8.1 8.1 0 0 0-7.7-.4a19.6 19.6 0 0 1-10.1 1.8a20 20 0 0 1-13.1-33.6a20.2 20.2 0 0 1 23.2-4.4a8.1 8.1 0 0 0 7.7-.4a8.2 8.2 0 0 0 3.7-6.8V72h46.7a8.2 8.2 0 0 0 6.8-3.7a8.1 8.1 0 0 0 .4-7.7a19.6 19.6 0 0 1-1.8-10.1a20 20 0 0 1 33.6-13.1a20.2 20.2 0 0 1 4.4 23.2a8.1 8.1 0 0 0 .4 7.7a8.2 8.2 0 0 0 6.8 3.7H208v32.2a36.4 36.4 0 0 0-6.6-.1a36 36 0 0 0-33.3 33.6A36.1 36.1 0 0 0 204 176l4-.2Z"></path></svg>