<svg xmlns="http://www.w3.org/2000/svg" xmlns:xlink="http://www.w3.org/1999/xlink" aria-hidden="true" role="img" class="iconify iconify--ph" width="100%" height="100%" preserveAspectRatio="xMidYMid meet" viewBox="0 0 256 256"><path fill="currentColor" d="M32 208V56a8 8 0 0 1 8-8h176a8 8 0 0 1 8 8v152l-32-16l-32 16l-32-16l-32 16l-32-16Z" opacity=".2"></path><path fill="currentColor" d="M76 112h104a8 8 0 0 0 0-16H76a8 8 0 0 0 0 16Zm0 32h104a8 8 0 0 0 0-16H76a8 8 0 0 0 0 16Z"></path><path fill="currentColor" d="M216 40H40a16 16 0 0 0-16 16v152a7.9 7.9 0 0 0 3.8 6.8a8 8 0 0 0 7.8.4L64 200.9l28.4 14.3a8.3 8.3 0 0 0 7.2 0l28.4-14.3l28.4 14.3a8.5 8.5 0 0 0 7.2 0l28.4-14.3l28.4 14.3a8 8 0 0 0 7.8-.4a7.9 7.9 0 0 0 3.8-6.8V56a16 16 0 0 0-16-16Zm0 155.1l-20.4-10.3a8.3 8.3 0 0 0-7.2 0L160 199.1l-28.4-14.3a8.5 8.5 0 0 0-7.2 0L96 199.1l-28.4-14.3a8.3 8.3 0 0 0-7.2 0L40 195.1V56h176Z"></path></svg>